<svg width="1360" height="539" viewBox="0 0 1360 539" fill="none" xmlns="http://www.w3.org/2000/svg">
<path d="M162.387 1240C322.359 1122.18 484.098 1005.84 652.962 893.241C943.931 699.214 1250.38 514.678 1522.69 309.247C1528.45 304.897 1622.83 231.406 1638.97 217.572C1681.15 181.445 1608.71 214.911 1593.82 220.722C1285.87 340.844 973.558 455.756 663.237 573.253C561.338 611.834 498.928 636.198 398.749 673.326C360.315 687.57 289.066 720.355 239.731 728.436C235.651 729.104 239.869 722.774 241.894 720.389C266.881 690.956 297.894 662.577 327.084 635.011C455.496 513.732 600.797 400.576 736.256 282.655C740.211 279.212 917.606 139.03 889.324 121.698C882.083 117.259 869.019 121.715 859.578 123.797C760.164 145.715 663.027 177.49 568.585 206.375C335.71 277.596 107.852 354.325 -112.38 440.812C-201.464 475.796 -172.734 465.415 -248.14 495.399C-251.216 496.621 -300.267 519.755 -271.938 499.072C-127.815 393.846 38.8907 302.63 182.127 196.578C269.799 131.668 354.985 64.1866 402.534 -17.2159C402.712 -17.5188 414.726 -38.439 412.812 -42.4092C411.763 -44.587 407.363 -45.6956 403.888 -46.0833C376.361 -49.1534 348.145 -43.6605 320.323 -42.0593C-34.9067 -21.6163 -391.458 -17.4427 -747.909 -16.516C-955.111 -15.9774 -1164.25 -12.6257 -1371 -19.6653" stroke="url(#paint0_linear_18055_254)" stroke-opacity="0.72" stroke-width="143" stroke-linecap="square"/>
<defs>
<linearGradient id="paint0_linear_18055_254" x1="236.535" y1="411.529" x2="737.763" y2="-317.582" gradientUnits="userSpaceOnUse">
<stop stop-color="white"/>
<stop offset="1" stop-color="white"/>
</linearGradient>
</defs>
</svg>
