<svg width="343" height="200" viewBox="0 0 343 200" fill="none" xmlns="http://www.w3.org/2000/svg">
<path d="M794.135 240.445C794.135 240.445 18.3211 385.571 103.59 330.368C250.517 235.249 414.845 199.746 552.231 99.2193C555.137 97.0907 602.747 61.1438 610.881 54.3856C632.14 36.7364 595.491 53.2566 587.951 56.1366C432.034 115.679 273.876 172.73 116.742 231.018C65.1445 250.157 33.5462 262.234 -17.184 280.663C-36.647 287.733 -72.6965 303.919 -97.7295 308.071C-99.7995 308.415 -97.6869 305.338 -96.6693 304.177C-84.1137 289.846 -68.491 275.992 -53.791 262.541C10.8784 203.359 84.1704 148.011 152.437 90.4141C154.431 88.7323 243.901 20.1779 229.444 11.959C225.743 9.85423 219.125 12.0715 214.337 13.1242C163.921 24.2101 114.711 40.0407 66.856 54.4632C-51.1447 90.0236 -166.569 128.217 -278.071 171.079C-323.173 188.417 -308.623 183.261 -346.798 198.115C-348.356 198.721 -373.171 210.136 -358.875 200.01C-286.143 148.494 -201.867 103.624 -129.589 51.7142C-85.3504 19.9426 -42.3865 -13.0574 -18.6178 -52.5823C-18.5289 -52.7293 -12.5255 -62.886 -13.5173 -64.7921C-14.0607 -65.8376 -16.3026 -66.3501 -18.0702 -66.5194C-32.0747 -67.8599 -46.387 -65.0648 -60.5185 -64.1497C-240.947 -52.4659 -450.464 12.5306 -450.464 12.5306" stroke="url(#paint0_radial_20162_13357)" stroke-width="55" stroke-linecap="square"/>
<defs>
<radialGradient id="paint0_radial_20162_13357" cx="0" cy="0" r="1" gradientUnits="userSpaceOnUse" gradientTransform="translate(187.988 -123.534) rotate(100.447) scale(532.04 365.866)">
<stop stop-color="white" stop-opacity="0"/>
<stop offset="1" stop-color="white"/>
</radialGradient>
</defs>
</svg>
