<svg width="1083" height="871" viewBox="0 0 1083 871" fill="none" xmlns="http://www.w3.org/2000/svg">
<g clip-path="url(#clip0_18131_6848)">
<rect x="873" y="5" width="136" height="136" rx="68" fill="white"/>
<path d="M927.548 75.966C924.908 75.966 923.848 71.246 923.628 69.366C923.391 67.5408 923.611 65.6853 924.268 63.966C924.556 63.1479 925.053 62.419 925.709 61.8509C926.364 61.2829 927.157 60.8952 928.008 60.726C930.348 60.326 932.008 61.726 934.128 62.206C934.526 62.3338 934.95 62.3563 935.36 62.2711C935.769 62.186 936.15 61.9961 936.464 61.7202C936.778 61.4442 937.016 61.0914 937.153 60.6964C937.29 60.3013 937.323 59.8774 937.248 59.466C936.368 56.026 930.108 55.966 927.548 55.966C927.548 52.246 931.628 51.766 934.548 52.046C936.28 52.2134 937.986 52.5894 939.628 53.166C940.628 53.506 941.788 54.366 942.888 54.286C944.548 54.146 944.888 52.426 944.168 51.166C942.428 48.206 937.488 47.966 934.548 47.966C934.548 43.966 938.008 43.206 941.328 43.806C943.042 44.1435 944.712 44.6735 946.308 45.386C947.328 45.826 948.548 46.666 949.668 46.286C952.548 45.406 949.548 42.326 948.268 41.586C947.369 41.0903 946.416 40.701 945.428 40.426C944.348 40.106 943.028 40.226 944.008 38.966C945.54 37.6141 947.441 36.7505 949.468 36.486C953.248 35.606 958.468 35.446 959.388 40.206C959.694 42.7191 959.091 45.259 957.688 47.366C953.961 53.7387 949.348 59.55 943.988 64.626C941.148 67.537 938.071 70.2062 934.788 72.606C932.788 74.046 930.148 75.966 927.548 75.966Z" fill="#3E424D"/>
<path d="M891.41 94.9658V84.6198H893.034V89.1838L896.744 84.6198H898.732L894.434 89.7158L898.732 94.9658H896.73L893.034 90.3318V94.9658H891.41ZM899.34 91.1158C899.34 88.8198 901.132 87.0558 903.456 87.0558C905.71 87.0558 907.502 88.8618 907.502 91.1158C907.502 93.3698 905.71 95.1478 903.456 95.1478C901.146 95.1478 899.34 93.3698 899.34 91.1158ZM903.428 93.6918C904.828 93.6918 905.892 92.5718 905.892 91.1298C905.892 89.6458 904.814 88.5118 903.386 88.5118C902.028 88.5118 900.936 89.6598 900.936 91.1158C900.936 92.5578 902.028 93.6918 903.428 93.6918ZM908.754 94.9658V87.2378H910.336V90.3318H914.144V87.2378H915.74V94.9658H914.144V91.7738H910.336V94.9658H908.754ZM916.71 96.7858V93.5238H917.844L920.518 87.2378H922.002L924.676 93.5238H925.81V96.7858H924.676L924.298 94.9658H918.236L917.844 96.7858H916.71ZM919.496 93.5238H923.024L921.26 89.3378L919.496 93.5238ZM926.774 94.9658V87.2378H928.356V92.7258L932.22 87.2378H933.83V94.9658H932.248V89.4918L928.384 94.9658H926.774ZM936.73 94.9658V88.6798H934.854V87.2378H940.188V88.6798H938.312V94.9658H936.73ZM947.007 92.5998H948.729C948.225 94.0978 946.713 95.1478 945.019 95.1478C942.681 95.1478 940.875 93.3838 940.875 91.1158C940.875 88.8478 942.653 87.0558 944.921 87.0558C947.189 87.0558 948.939 88.8338 948.939 91.1438C948.939 91.3958 948.911 91.5498 948.869 91.7738H942.555C942.737 92.9078 943.717 93.6918 944.977 93.6918C945.887 93.6918 946.545 93.3138 947.007 92.5998ZM942.527 90.3598H947.357C947.077 89.1978 946.195 88.5118 944.935 88.5118C943.703 88.5118 942.821 89.1978 942.527 90.3598ZM950.152 97.5838V87.2378H951.636V88.2878C952.252 87.4898 953.19 87.0558 954.338 87.0558C956.592 87.0558 958.258 88.7638 958.258 91.0878C958.258 93.4118 956.578 95.1478 954.324 95.1478C953.26 95.1478 952.448 94.7978 951.734 94.0418V97.5838H950.152ZM954.17 93.6918C955.584 93.6918 956.662 92.5718 956.662 91.1298C956.662 89.6178 955.584 88.5118 954.128 88.5118C952.714 88.5118 951.636 89.6458 951.636 91.1298C951.636 92.5718 952.742 93.6918 954.17 93.6918ZM965.356 92.5158H967.148C966.42 94.2378 965.09 95.1478 963.326 95.1478C961.016 95.1478 959.182 93.3558 959.182 91.1018C959.182 88.8338 960.974 87.0558 963.27 87.0558C965.076 87.0558 966.532 88.0638 967.148 89.7438H965.356C964.908 88.9318 964.208 88.5118 963.27 88.5118C961.828 88.5118 960.778 89.6038 960.778 91.1018C960.778 92.5718 961.87 93.6918 963.312 93.6918C964.18 93.6918 964.782 93.3418 965.356 92.5158ZM968.363 94.9658V87.2378H969.945V90.7658L972.913 87.2378H974.859L971.527 91.0458L974.971 94.9658H972.899L969.945 91.3818V94.9658H968.363ZM975.815 94.9658V87.2378H977.397V92.7258L981.261 87.2378H982.871V94.9658H981.289V89.4918L977.425 94.9658H975.815ZM990.265 92.5998H991.987C991.483 94.0978 989.971 95.1478 988.277 95.1478C985.939 95.1478 984.133 93.3838 984.133 91.1158C984.133 88.8478 985.911 87.0558 988.179 87.0558C990.447 87.0558 992.197 88.8338 992.197 91.1438C992.197 91.3958 992.169 91.5498 992.127 91.7738H985.813C985.995 92.9078 986.975 93.6918 988.235 93.6918C989.145 93.6918 989.803 93.3138 990.265 92.5998ZM985.785 90.3598H990.615C990.335 89.1978 989.453 88.5118 988.193 88.5118C986.961 88.5118 986.079 89.1978 985.785 90.3598Z" fill="#3E424D"/>
</g>
<rect x="875.626" y="7.62556" width="130.749" height="130.749" rx="65.3744" stroke="#F4F4F4" stroke-width="5.25111"/>
<g clip-path="url(#clip1_18131_6848)">
<rect x="248" width="105" height="105" rx="52.5" fill="#F4F4F4"/>
<path d="M312.357 41.1089C311.937 40.6889 311.887 40.0088 312.257 39.5287C314.346 36.8884 315.576 33.5379 315.496 29.8974C315.316 22.1063 308.967 15.6154 301.198 15.2654C292.589 14.8753 285.5 21.7263 285.5 30.2474C285.5 37.6885 290.919 43.8493 298.018 45.0295C298.348 45.0895 298.698 45.1395 299.068 45.1795C299.588 45.2295 300.058 45.2495 300.498 45.2495H314.369C315.154 45.2495 315.547 44.3004 314.992 43.7452L312.357 41.1089ZM292.499 32.2477C291.399 32.2477 290.499 31.3476 290.499 30.2474C290.499 29.1473 291.399 28.2472 292.499 28.2472C293.599 28.2472 294.499 29.1473 294.499 30.2474C294.499 31.3476 293.599 32.2477 292.499 32.2477ZM300.498 32.2477C299.398 32.2477 298.499 31.3476 298.499 30.2474C298.499 29.1473 299.398 28.2472 300.498 28.2472C301.598 28.2472 302.498 29.1473 302.498 30.2474C302.498 31.3476 301.598 32.2477 300.498 32.2477ZM308.497 32.2477C307.397 32.2477 306.498 31.3476 306.498 30.2474C306.498 29.1473 307.397 28.2472 308.497 28.2472C309.597 28.2472 310.497 29.1473 310.497 30.2474C310.497 31.3476 309.597 32.2477 308.497 32.2477Z" fill="#3E424D"/>
<path d="M287.815 61.4215H289.691C288.809 63.3255 287.059 64.4315 284.931 64.4315C281.893 64.4315 279.499 62.0655 279.499 59.0695C279.499 56.0875 281.851 53.7215 284.833 53.7215C287.003 53.7215 288.823 54.8555 289.677 56.7735H287.871C287.129 55.7375 286.191 55.2755 284.875 55.2755C282.747 55.2755 281.137 56.8995 281.137 59.0555C281.137 61.1695 282.831 62.8775 284.903 62.8775C286.051 62.8775 286.905 62.4575 287.815 61.4215ZM291.03 64.2495V56.5215H292.99L295.44 61.2535L297.89 56.5215H299.836V64.2495H298.254V58.6635L295.944 63.1715H294.922L292.612 58.6635V64.2495H291.03ZM307.273 61.7995H309.065C308.337 63.5215 307.007 64.4315 305.243 64.4315C302.933 64.4315 301.099 62.6395 301.099 60.3855C301.099 58.1175 302.891 56.3395 305.187 56.3395C306.993 56.3395 308.449 57.3475 309.065 59.0275H307.273C306.825 58.2155 306.125 57.7955 305.187 57.7955C303.745 57.7955 302.695 58.8875 302.695 60.3855C302.695 61.8555 303.787 62.9755 305.229 62.9755C306.097 62.9755 306.699 62.6255 307.273 61.7995ZM314.191 64.2495V56.5215H315.773V62.0095L319.637 56.5215H321.247V64.2495H319.665V58.7755L315.801 64.2495H314.191ZM285.254 85.8675V75.5215H286.738V76.5715C287.354 75.7735 288.292 75.3395 289.44 75.3395C291.694 75.3395 293.36 77.0475 293.36 79.3715C293.36 81.6955 291.68 83.4315 289.426 83.4315C288.362 83.4315 287.55 83.0815 286.836 82.3255V85.8675H285.254ZM289.272 81.9755C290.686 81.9755 291.764 80.8555 291.764 79.4135C291.764 77.9015 290.686 76.7955 289.23 76.7955C287.816 76.7955 286.738 77.9295 286.738 79.4135C286.738 80.8555 287.844 81.9755 289.272 81.9755ZM299.953 83.2495V82.3535C299.309 83.1375 298.679 83.4315 297.657 83.4315C295.641 83.4315 294.605 82.1435 294.605 79.6795V75.5215H296.187V79.4275C296.187 81.1915 296.719 81.9755 297.923 81.9755C299.267 81.9755 299.869 81.1495 299.869 79.2735V75.5215H301.451V83.2495H299.953ZM302.467 80.8555H304.063C304.203 81.6115 304.581 81.9755 305.225 81.9755C305.799 81.9755 306.219 81.5835 306.219 81.0235C306.219 80.3515 305.561 80.1275 304.847 79.8755C303.307 79.3295 302.747 78.7275 302.747 77.6355C302.747 76.3195 303.783 75.3395 305.183 75.3395C306.569 75.3395 307.549 76.2635 307.605 77.5795H306.037C305.967 77.0755 305.673 76.7955 305.183 76.7955C304.693 76.7955 304.343 77.1315 304.343 77.5655C304.343 78.1675 305.127 78.4335 305.785 78.6575C307.213 79.1195 307.815 79.7775 307.815 80.8695C307.815 82.3255 306.681 83.4315 305.183 83.4315C303.601 83.4315 302.579 82.4655 302.467 80.8555ZM308.934 83.2495V72.9035H310.516V76.2075C311.062 75.6195 311.762 75.3395 312.644 75.3395C314.702 75.3395 315.78 76.5715 315.78 78.9515V83.2495H314.184V79.2315C314.184 77.5515 313.624 76.7955 312.392 76.7955C311.16 76.7955 310.516 77.6215 310.516 79.2315V83.2495H308.934Z" fill="#3E424D"/>
</g>
<rect x="249.75" y="1.75" width="101.5" height="101.5" rx="50.75" stroke="#F4F4F4" stroke-width="3.5"/>
<g clip-path="url(#clip2_18131_6848)">
<rect x="408" y="54" width="136" height="136" rx="68" fill="#FEFEFE"/>
<path d="M498.35 93.625C498.35 81.1986 488.5 71.125 476.35 71.125C464.199 71.125 454.35 81.1986 454.35 93.625C454.35 106.051 464.199 116.125 476.35 116.125C488.5 116.125 498.35 106.051 498.35 93.625Z" fill="white"/>
<path d="M491.084 110.824L478.889 98.2903L464.642 83.6475H463.529L463.301 84.2412C462.701 85.8084 462.445 87.4112 462.56 88.8763C462.691 90.5464 463.309 91.9923 464.345 93.0578L475.467 104.489L476.934 102.981L487.217 114.798C488.24 115.849 490 115.912 491.084 114.798C492.15 113.702 492.15 111.919 491.084 110.824Z" fill="#FED42A"/>
<path d="M470.313 101.84L461.602 110.793C460.536 111.889 460.536 113.672 461.602 114.767C462.615 115.808 464.367 115.9 465.469 114.767L474.18 105.815L470.313 101.84Z" fill="#FED42A"/>
<path d="M490.573 88.9717L485.631 94.0501L484.342 92.7253L489.284 87.6468L487.995 86.3219L483.053 91.4004L481.764 90.0756L486.706 84.9971L485.417 83.6724L478.972 90.2965C478.183 91.1068 477.712 92.1828 477.646 93.3264C477.629 93.6161 477.565 93.9011 477.459 94.1721L481.646 98.4752C481.909 98.3661 482.187 98.3005 482.469 98.2832C483.581 98.215 484.628 97.731 485.417 96.9206L491.862 90.2965L490.573 88.9717Z" fill="#FED42A"/>
<path d="M452.202 132V121.654H453.826V126.218L457.536 121.654H459.524L455.226 126.75L459.524 132H457.522L453.826 127.366V132H452.202ZM460.132 128.164C460.132 125.812 461.812 124.09 464.108 124.09C465.298 124.09 466.124 124.496 466.796 125.42V124.272H468.28V132H466.796V130.88C466.04 131.804 465.27 132.182 464.108 132.182C461.798 132.182 460.132 130.488 460.132 128.164ZM461.728 128.178C461.728 129.648 462.806 130.726 464.276 130.726C465.732 130.726 466.768 129.648 466.768 128.15C466.768 126.638 465.69 125.546 464.206 125.546C462.792 125.546 461.728 126.68 461.728 128.178ZM473.753 134.618V132.154C470.925 131.958 469.567 130.656 469.567 128.15C469.567 125.644 470.925 124.328 473.753 124.132V121.654H475.335V124.132C478.149 124.328 479.507 125.63 479.507 128.15C479.507 130.656 478.163 131.958 475.335 132.154V134.618H473.753ZM473.753 130.684V125.588C471.989 125.77 471.177 126.568 471.177 128.15C471.177 129.718 471.975 130.516 473.753 130.684ZM475.335 125.588V130.684C477.113 130.516 477.911 129.732 477.911 128.15C477.911 126.568 477.099 125.77 475.335 125.588ZM486.608 129.634H488.33C487.826 131.132 486.314 132.182 484.62 132.182C482.282 132.182 480.476 130.418 480.476 128.15C480.476 125.882 482.254 124.09 484.522 124.09C486.79 124.09 488.54 125.868 488.54 128.178C488.54 128.43 488.512 128.584 488.47 128.808H482.156C482.338 129.942 483.318 130.726 484.578 130.726C485.488 130.726 486.146 130.348 486.608 129.634ZM482.128 127.394H486.958C486.678 126.232 485.796 125.546 484.536 125.546C483.304 125.546 482.422 126.232 482.128 127.394ZM493.664 132V124.272H495.246V129.76L499.11 124.272H500.72V132H499.138V126.526L495.274 132H493.664ZM437.486 153.618V143.272H438.97V144.322C439.586 143.524 440.524 143.09 441.672 143.09C443.926 143.09 445.592 144.798 445.592 147.122C445.592 149.446 443.912 151.182 441.658 151.182C440.594 151.182 439.782 150.832 439.068 150.076V153.618H437.486ZM441.504 149.726C442.918 149.726 443.996 148.606 443.996 147.164C443.996 145.652 442.918 144.546 441.462 144.546C440.048 144.546 438.97 145.68 438.97 147.164C438.97 148.606 440.076 149.726 441.504 149.726ZM452.647 148.634H454.369C453.865 150.132 452.353 151.182 450.659 151.182C448.321 151.182 446.515 149.418 446.515 147.15C446.515 144.882 448.293 143.09 450.561 143.09C452.829 143.09 454.579 144.868 454.579 147.178C454.579 147.43 454.551 147.584 454.509 147.808H448.195C448.377 148.942 449.357 149.726 450.617 149.726C451.527 149.726 452.185 149.348 452.647 148.634ZM448.167 146.394H452.997C452.717 145.232 451.835 144.546 450.575 144.546C449.343 144.546 448.461 145.232 448.167 146.394ZM461.631 148.55H463.423C462.695 150.272 461.365 151.182 459.601 151.182C457.291 151.182 455.457 149.39 455.457 147.136C455.457 144.868 457.249 143.09 459.545 143.09C461.351 143.09 462.807 144.098 463.423 145.778H461.631C461.183 144.966 460.483 144.546 459.545 144.546C458.103 144.546 457.053 145.638 457.053 147.136C457.053 148.606 458.145 149.726 459.587 149.726C460.455 149.726 461.057 149.376 461.631 148.55ZM465.94 151V144.714H464.064V143.272H469.398V144.714H467.522V151H465.94ZM470.085 147.15C470.085 144.854 471.877 143.09 474.201 143.09C476.455 143.09 478.247 144.896 478.247 147.15C478.247 149.404 476.455 151.182 474.201 151.182C471.891 151.182 470.085 149.404 470.085 147.15ZM474.173 149.726C475.573 149.726 476.637 148.606 476.637 147.164C476.637 145.68 475.559 144.546 474.131 144.546C472.773 144.546 471.681 145.694 471.681 147.15C471.681 148.592 472.773 149.726 474.173 149.726ZM479.5 153.618V143.272H480.984V144.322C481.6 143.524 482.538 143.09 483.686 143.09C485.94 143.09 487.606 144.798 487.606 147.122C487.606 149.446 485.926 151.182 483.672 151.182C482.608 151.182 481.796 150.832 481.082 150.076V153.618H479.5ZM483.518 149.726C484.932 149.726 486.01 148.606 486.01 147.164C486.01 145.652 484.932 144.546 483.476 144.546C482.062 144.546 480.984 145.68 480.984 147.164C480.984 148.606 482.09 149.726 483.518 149.726ZM488.529 147.164C488.529 144.812 490.209 143.09 492.505 143.09C493.695 143.09 494.521 143.496 495.193 144.42V143.272H496.677V151H495.193V149.88C494.437 150.804 493.667 151.182 492.505 151.182C490.195 151.182 488.529 149.488 488.529 147.164ZM490.125 147.178C490.125 148.648 491.203 149.726 492.673 149.726C494.129 149.726 495.165 148.648 495.165 147.15C495.165 145.638 494.087 144.546 492.603 144.546C491.189 144.546 490.125 145.68 490.125 147.178ZM498.271 151V143.272H499.853V146.366H503.661V143.272H505.257V151H503.661V147.808H499.853V151H498.271ZM508.439 149.558H510.007C510.791 149.558 511.253 149.166 511.253 148.536C511.253 147.906 510.791 147.514 510.007 147.514H508.439V149.558ZM506.857 151V143.272H508.439V146.072H510.189C511.729 146.072 512.849 147.122 512.849 148.536C512.849 149.95 511.729 151 510.189 151H506.857ZM513.633 151V143.272H515.215V151H513.633Z" fill="#1D2122"/>
</g>
<rect x="410.5" y="56.5" width="131" height="131" rx="65.5" stroke="#F4F4F4" stroke-width="5"/>
<rect x="627" y="72" width="136" height="136" rx="68" fill="#FF2035"/>
<path d="M696.811 144.475V129.421C703.896 128.61 708.936 122.678 708.936 115.911C708.936 113.353 708.226 110.171 706.995 107.087C706.733 106.431 706.097 106 705.391 106H685.297C684.591 106 683.955 106.431 683.694 107.087C682.582 109.872 681.719 113.155 681.766 116.184C681.766 116.187 681.766 116.19 681.766 116.192C681.903 122.866 686.902 128.642 693.877 129.421V144.475C689.259 144.853 685.72 146.905 685.72 147.937C685.72 149.078 690.028 150 695.344 150C700.66 150 704.97 149.078 704.97 147.937C704.97 146.905 701.429 144.853 696.811 144.475ZM686.127 108.934H704.561C705.482 111.444 706.003 113.95 706.003 115.911C706.003 116.387 705.96 116.854 705.9 117.314C704.983 117.085 704.032 117.055 703.012 117.418C700.349 118.366 698.623 118.974 695.913 117.911C693.219 116.854 691.517 112.051 688.286 112.417C687.003 112.561 685.902 112.983 684.908 113.57C685.138 112.115 685.541 110.533 686.127 108.934Z" fill="white"/>
<path d="M679.477 175.46H680.415C681.143 175.46 681.577 175.418 681.997 175.32C682.641 175.124 683.033 174.564 683.033 173.808C683.033 172.338 681.619 172.212 680.499 172.212H679.477V175.46ZM677.853 177V166.654H684.027V168.194H679.477V170.672H680.555C682.011 170.672 682.711 170.798 683.327 171.162C684.167 171.652 684.671 172.66 684.671 173.822C684.671 174.998 684.195 175.95 683.355 176.468C682.711 176.86 681.955 177 680.513 177H677.853ZM685.606 173.164C685.606 170.812 687.286 169.09 689.582 169.09C690.772 169.09 691.598 169.496 692.27 170.42V169.272H693.754V177H692.27V175.88C691.514 176.804 690.744 177.182 689.582 177.182C687.272 177.182 685.606 175.488 685.606 173.164ZM687.202 173.178C687.202 174.648 688.28 175.726 689.75 175.726C691.206 175.726 692.242 174.648 692.242 173.15C692.242 171.638 691.164 170.546 689.68 170.546C688.266 170.546 687.202 171.68 687.202 173.178ZM695.348 179.618V169.272H696.832V170.322C697.448 169.524 698.386 169.09 699.534 169.09C701.788 169.09 703.454 170.798 703.454 173.122C703.454 175.446 701.774 177.182 699.52 177.182C698.456 177.182 697.644 176.832 696.93 176.076V179.618H695.348ZM699.366 175.726C700.78 175.726 701.858 174.606 701.858 173.164C701.858 171.652 700.78 170.546 699.324 170.546C697.91 170.546 696.832 171.68 696.832 173.164C696.832 174.606 697.938 175.726 699.366 175.726ZM706.295 175.558H707.863C708.647 175.558 709.109 175.166 709.109 174.536C709.109 173.906 708.647 173.514 707.863 173.514H706.295V175.558ZM704.713 177V169.272H706.295V172.072H708.045C709.585 172.072 710.705 173.122 710.705 174.536C710.705 175.95 709.585 177 708.045 177H704.713ZM711.489 177V169.272H713.071V177H711.489Z" fill="white"/>
<g clip-path="url(#clip3_18131_6848)">
<rect x="882" y="238" width="136" height="136" rx="68" fill="#FF2035"/>
<path d="M966.176 274.149C960.635 271.956 954.358 270.748 948.499 270.748C942.466 270.748 936.18 271.937 930.793 274.094C928.866 274.876 928.535 276.253 928.867 277.28L929.253 278.246C929.329 278.435 929.442 278.607 929.586 278.752C929.729 278.896 929.901 279.01 930.089 279.087C930.278 279.164 930.48 279.202 930.684 279.199C930.888 279.197 931.089 279.153 931.276 279.07C932.301 278.619 933.547 278.07 933.838 277.952C938.015 276.219 943.103 275.304 948.54 275.304C953.995 275.304 958.799 276.181 963.228 277.985C963.648 278.156 964.64 278.594 965.712 279.072C965.898 279.155 966.099 279.2 966.303 279.204C966.506 279.208 966.709 279.171 966.898 279.095C967.087 279.019 967.259 278.905 967.403 278.761C967.548 278.617 967.661 278.446 967.738 278.257L968.091 277.392L968.123 277.306C968.451 276.337 968.137 274.929 966.176 274.149Z" fill="white"/>
<path d="M963.079 281.08C958.76 279.34 953.446 278.341 948.499 278.341C943.508 278.344 938.56 279.274 933.908 281.083C933.858 281.103 933.713 281.166 933.501 281.261C933.318 281.343 933.153 281.461 933.016 281.607C932.878 281.753 932.771 281.925 932.701 282.112C932.63 282.3 932.597 282.5 932.604 282.7C932.611 282.901 932.658 283.098 932.742 283.28C933.121 284.107 933.636 285.233 934.213 286.496C937.336 293.336 943.151 306.054 945.813 311.559C946.06 312.072 946.447 312.505 946.93 312.808C947.413 313.11 947.971 313.269 948.541 313.267C949.112 313.269 949.671 313.109 950.154 312.806C950.638 312.502 951.025 312.068 951.27 311.553L951.276 311.541L964.307 283.299C964.393 283.114 964.441 282.914 964.448 282.71C964.455 282.506 964.42 282.303 964.347 282.113C964.273 281.923 964.162 281.75 964.019 281.604C963.877 281.457 963.707 281.342 963.518 281.263C963.304 281.173 963.153 281.11 963.091 281.086L963.079 281.08ZM942.664 288.964C942.048 289.004 941.434 288.856 940.905 288.538C940.375 288.22 939.955 287.749 939.7 287.186C939.445 286.624 939.368 285.997 939.479 285.39C939.589 284.782 939.883 284.223 940.319 283.786C940.756 283.349 941.315 283.056 941.923 282.946C942.53 282.835 943.157 282.912 943.72 283.167C944.282 283.422 944.754 283.842 945.071 284.371C945.389 284.901 945.537 285.515 945.497 286.131C945.449 286.867 945.135 287.56 944.614 288.081C944.093 288.602 943.4 288.916 942.664 288.964ZM948.738 301.112C948.122 301.152 947.508 301.004 946.979 300.686C946.449 300.369 946.029 299.897 945.774 299.335C945.519 298.772 945.442 298.145 945.553 297.538C945.663 296.93 945.957 296.371 946.393 295.934C946.83 295.497 947.389 295.204 947.997 295.094C948.604 294.983 949.231 295.06 949.794 295.315C950.356 295.57 950.828 295.99 951.145 296.52C951.463 297.049 951.612 297.663 951.571 298.279C951.523 299.015 951.21 299.708 950.688 300.229C950.167 300.75 949.474 301.064 948.738 301.112ZM954.812 290.483C954.196 290.523 953.582 290.374 953.053 290.057C952.523 289.739 952.103 289.267 951.848 288.705C951.594 288.142 951.516 287.516 951.627 286.908C951.737 286.3 952.031 285.741 952.467 285.304C952.904 284.868 953.463 284.575 954.071 284.464C954.678 284.353 955.305 284.431 955.868 284.685C956.43 284.94 956.902 285.36 957.219 285.89C957.537 286.42 957.686 287.033 957.645 287.65C957.597 288.385 957.284 289.078 956.762 289.599C956.241 290.121 955.548 290.435 954.812 290.483Z" fill="white"/>
<path d="M915.385 333.68V323.334H922.679V333.68H921.055V324.874H917.009V333.68H915.385ZM924.499 333.68V325.952H926.081V331.44L929.945 325.952H931.555V333.68H929.973V328.206L926.109 333.68H924.499ZM933.153 333.68V325.952H934.735V332.238H938.277V325.952H939.873V332.238H941.273V335.5H940.139L939.747 333.68H933.153ZM942.245 333.68V325.952H943.827V332.238H947.369V325.952H948.965V332.238H950.365V335.5H949.231L948.839 333.68H942.245ZM957.133 331.314H958.855C958.351 332.812 956.839 333.862 955.145 333.862C952.807 333.862 951.001 332.098 951.001 329.83C951.001 327.562 952.779 325.77 955.047 325.77C957.315 325.77 959.065 327.548 959.065 329.858C959.065 330.11 959.037 330.264 958.995 330.488H952.681C952.863 331.622 953.843 332.406 955.103 332.406C956.013 332.406 956.671 332.028 957.133 331.314ZM952.653 329.074H957.483C957.203 327.912 956.321 327.226 955.061 327.226C953.829 327.226 952.947 327.912 952.653 329.074ZM960.278 336.298V325.952H961.762V327.002C962.378 326.204 963.316 325.77 964.464 325.77C966.718 325.77 968.384 327.478 968.384 329.802C968.384 332.126 966.704 333.862 964.45 333.862C963.386 333.862 962.574 333.512 961.86 332.756V336.298H960.278ZM964.296 332.406C965.71 332.406 966.788 331.286 966.788 329.844C966.788 328.332 965.71 327.226 964.254 327.226C962.84 327.226 961.762 328.36 961.762 329.844C961.762 331.286 962.868 332.406 964.296 332.406ZM969.644 333.68V325.952H971.226V331.44L975.09 325.952H976.7V333.68H975.118V328.206L971.254 333.68H969.644ZM982.26 329.41V327.394H980.86C980.076 327.394 979.614 327.772 979.614 328.402C979.614 329.032 980.076 329.41 980.86 329.41H982.26ZM977.696 333.68L979.74 330.712C978.69 330.376 978.018 329.48 978.018 328.402C978.018 326.988 979.138 325.952 980.678 325.952H983.842V333.68H982.26V330.852H981.392L979.586 333.68H977.696Z" fill="white"/>
</g>
<g clip-path="url(#clip4_18131_6848)">
<rect x="615" y="262.818" width="159.344" height="159.344" rx="29" transform="rotate(-0.294164 615 262.818)" fill="white"/>
<path d="M700.809 470.827C667.962 447.981 614.591 412.434 583.3 384.93C568.421 371.852 533.633 342.854 550.372 333.075C565.641 324.154 638.723 348.949 640.551 349.541C699.107 368.499 731.185 384.172 789.65 405.341" stroke="#3E424D" stroke-width="71" stroke-linecap="square"/>
<path d="M869.894 252.567C826.618 260.206 779.865 265.013 739.284 283.21C729.839 287.445 720.128 292.041 712.681 299.232C703.518 308.081 698.507 325.425 713.639 333.347C724.505 339.036 737.354 340.442 749.599 341.145C791.282 343.535 841.133 334.763 881.236 327.713C921.843 320.575 958.903 309.871 998.321 299.8" stroke="#3E424D" stroke-width="46" stroke-linecap="square"/>
<path d="M644.8 340.75C651.191 360.74 672.577 371.764 692.567 365.373C712.557 358.981 723.581 337.595 717.19 317.605L644.8 340.75ZM644.055 213.641L680.25 202.068L676.864 191.478L668.304 184.384L644.055 213.641ZM538.69 175.668L619.806 242.898L668.304 184.384L587.188 117.153L538.69 175.668ZM607.86 225.213L644.8 340.75L717.19 317.605L680.25 202.068L607.86 225.213Z" fill="#3E424D"/>
<path d="M658.009 364.314C646.792 357.934 642.183 344.262 647.128 332.652C647.149 332.601 647.21 332.58 647.258 332.607L660.145 339.879L660.153 339.883L661.041 340.39C661.07 340.406 661.088 340.437 661.088 340.47L661.219 365.961C661.22 366.032 661.143 366.077 661.081 366.042L658.013 364.316L658.009 364.314Z" stroke="white" stroke-width="2.78064"/>
<path d="M650.955 324.899C650.905 324.872 650.891 324.808 650.925 324.763C658.312 314.92 672.438 311.939 683.618 318.075L683.624 318.079L686.926 319.875C686.99 319.91 686.99 320.002 686.927 320.038L666.305 331.65L664.869 332.443C664.842 332.458 664.808 332.458 664.78 332.443L663.715 331.858L663.709 331.854L650.955 324.899Z" stroke="white" stroke-width="2.78064"/>
<path d="M730.15 339.52L742.961 332.116C743.009 332.089 743.07 332.109 743.092 332.159C748.156 343.719 743.687 357.437 732.537 363.932L732.533 363.934L729.483 365.691C729.421 365.727 729.344 365.683 729.344 365.612L729.213 340.121C729.213 340.087 729.23 340.057 729.259 340.04L730.146 339.522L730.15 339.52Z" stroke="white" stroke-width="2.78064"/>
<path d="M706.452 317.958C717.569 311.708 731.725 314.544 739.212 324.31C739.246 324.354 739.233 324.419 739.184 324.447L726.501 331.532L726.495 331.536L725.437 332.132C725.409 332.148 725.375 332.148 725.347 332.133L723.904 331.354L703.163 319.955C703.1 319.919 703.099 319.828 703.163 319.792L706.446 317.962L706.452 317.958Z" stroke="white" stroke-width="2.78064"/>
<path d="M672.811 337.813C672.748 337.778 672.747 337.688 672.809 337.652L694.465 325.027C694.494 325.011 694.529 325.011 694.558 325.027L716.01 337.221C716.072 337.256 716.073 337.346 716.011 337.382L700.511 346.393L700.47 346.414L700.419 346.444L694.58 349.836C694.551 349.852 694.517 349.852 694.488 349.836L672.811 337.813Z" stroke="white" stroke-width="2.78064"/>
<path d="M699.134 383.395C699.072 383.433 698.993 383.389 698.993 383.316L698.859 357.319C698.859 357.287 698.876 357.257 698.903 357.24L704.789 353.611L704.79 353.61L720.392 343.971C720.454 343.933 720.533 343.977 720.533 344.049L720.668 370.241C720.668 370.274 720.651 370.304 720.623 370.321L715.022 373.732L699.134 383.395Z" stroke="white" stroke-width="2.78064"/>
<path d="M668.536 370.817C668.508 370.801 668.49 370.771 668.49 370.738L668.362 345.774C668.362 345.703 668.439 345.658 668.501 345.693L690.121 358.014C690.149 358.03 690.167 358.06 690.167 358.094L690.297 383.363C690.298 383.434 690.22 383.479 690.158 383.443L668.536 370.817Z" stroke="white" stroke-width="2.78064"/>
</g>
<rect x="612.487" y="260.331" width="164.344" height="164.344" rx="31.5" transform="rotate(-0.294164 612.487 260.331)" stroke="#3E424D" stroke-width="5"/>
<g clip-path="url(#clip5_18131_6848)">
<rect x="396" y="353" width="105" height="105" rx="52.5" fill="#F4F4F4"/>
</g>
<rect x="398.417" y="355.417" width="100.167" height="100.167" rx="50.0833" stroke="#F4F4F4" stroke-width="4.83333"/>
<g clip-path="url(#clip6_18131_6848)">
<rect x="777" y="482" width="105" height="105" rx="52.5" fill="#F4F4F4"/>
<path d="M829 504C832.183 504 835.235 505.317 837.485 507.66C839.736 510.003 841 513.182 841 516.496C841 520.764 838.765 524.257 836.411 526.763C835.234 528.002 833.951 529.124 832.576 530.117L832.008 530.52L831.741 530.705L831.239 531.038L830.791 531.323L830.236 531.659C829.86 531.882 829.434 532 829 532C828.566 532 828.14 531.882 827.764 531.659L827.209 531.323L826.516 530.878L826.26 530.705L825.713 530.326C824.23 529.281 822.849 528.088 821.589 526.763C819.235 524.256 817 520.764 817 516.496C817 513.182 818.264 510.003 820.515 507.66C822.765 505.317 825.817 504 829 504ZM829 512.33C828.475 512.33 827.955 512.438 827.469 512.648C826.984 512.857 826.543 513.164 826.172 513.55C825.8 513.937 825.506 514.396 825.304 514.902C825.103 515.407 825 515.949 825 516.496C825 517.043 825.103 517.584 825.304 518.09C825.506 518.595 825.8 519.054 826.172 519.441C826.543 519.828 826.984 520.135 827.469 520.344C827.955 520.553 828.475 520.661 829 520.661C830.061 520.661 831.078 520.222 831.828 519.441C832.579 518.66 833 517.6 833 516.496C833 515.391 832.579 514.332 831.828 513.55C831.078 512.769 830.061 512.33 829 512.33Z" fill="#3E424D"/>
<path d="M788.61 552V541.654H793.916V543.194H790.234V552H788.61ZM800.608 549.634H802.33C801.826 551.132 800.314 552.182 798.62 552.182C796.282 552.182 794.476 550.418 794.476 548.15C794.476 545.882 796.254 544.09 798.522 544.09C800.79 544.09 802.54 545.868 802.54 548.178C802.54 548.43 802.512 548.584 802.47 548.808H796.156C796.338 549.942 797.318 550.726 798.578 550.726C799.488 550.726 800.146 550.348 800.608 549.634ZM796.128 547.394H800.958C800.678 546.232 799.796 545.546 798.536 545.546C797.304 545.546 796.422 546.232 796.128 547.394ZM803.417 548.15C803.417 545.854 805.209 544.09 807.533 544.09C809.787 544.09 811.579 545.896 811.579 548.15C811.579 550.404 809.787 552.182 807.533 552.182C805.223 552.182 803.417 550.404 803.417 548.15ZM807.505 550.726C808.905 550.726 809.969 549.606 809.969 548.164C809.969 546.68 808.891 545.546 807.463 545.546C806.105 545.546 805.013 546.694 805.013 548.15C805.013 549.592 806.105 550.726 807.505 550.726ZM811.884 552L815.132 544.272H816.49L819.738 552H818.058L815.818 546.4L813.564 552H811.884ZM820.056 548.15C820.056 545.854 821.848 544.09 824.172 544.09C826.426 544.09 828.218 545.896 828.218 548.15C828.218 550.404 826.426 552.182 824.172 552.182C821.862 552.182 820.056 550.404 820.056 548.15ZM824.144 550.726C825.544 550.726 826.608 549.606 826.608 548.164C826.608 546.68 825.53 545.546 824.102 545.546C822.744 545.546 821.652 546.694 821.652 548.15C821.652 549.592 822.744 550.726 824.144 550.726ZM829.47 552V544.272H831.052V547.8L834.02 544.272H835.966L832.634 548.08L836.078 552H834.006L831.052 548.416V552H829.47ZM836.585 548.164C836.585 545.812 838.265 544.09 840.561 544.09C841.751 544.09 842.577 544.496 843.249 545.42V544.272H844.733V552H843.249V550.88C842.493 551.804 841.723 552.182 840.561 552.182C838.251 552.182 836.585 550.488 836.585 548.164ZM838.181 548.178C838.181 549.648 839.259 550.726 840.729 550.726C842.185 550.726 843.221 549.648 843.221 548.15C843.221 546.638 842.143 545.546 840.659 545.546C839.245 545.546 838.181 546.68 838.181 548.178ZM846.327 552V544.272H847.909V550.558H851.451V544.272H853.047V550.558H854.447V553.82H853.313L852.921 552H846.327ZM855.419 552V544.272H857.001V549.76L860.865 544.272H862.475V552H860.893V546.526L857.029 552H855.419ZM868.035 547.73V545.714H866.635C865.851 545.714 865.389 546.092 865.389 546.722C865.389 547.352 865.851 547.73 866.635 547.73H868.035ZM863.471 552L865.515 549.032C864.465 548.696 863.793 547.8 863.793 546.722C863.793 545.308 864.913 544.272 866.453 544.272H869.617V552H868.035V549.172H867.167L865.361 552H863.471Z" fill="#3E424D"/>
</g>
<rect x="780.4" y="485.4" width="98.2" height="98.2" rx="49.1" stroke="#F4F4F4" stroke-width="6.8"/>
<g clip-path="url(#clip7_18131_6848)">
<rect x="227" y="480" width="105" height="105" rx="52.5" fill="#F4F4F4"/>
<path d="M292.681 507.996C292.661 507.666 292.513 507.356 292.268 507.13C292.023 506.903 291.7 506.777 291.363 506.778H287.409C287.409 504.715 286.575 502.737 285.092 501.278C283.609 499.819 281.597 499 279.5 499C277.402 499 275.391 499.819 273.907 501.278C272.424 502.737 271.591 504.715 271.591 506.778H267.636C267.3 506.777 266.976 506.903 266.731 507.13C266.486 507.356 266.338 507.666 266.318 507.996L265 529.307C265 530.552 265.503 531.746 266.398 532.626C267.292 533.506 268.506 534 269.772 534H289.228C289.861 533.998 290.487 533.873 291.07 533.632C291.654 533.391 292.182 533.038 292.626 532.594C293.07 532.151 293.42 531.625 293.656 531.047C293.891 530.47 294.008 529.852 294 529.23L292.681 507.996ZM279.5 501.593C280.898 501.593 282.239 502.139 283.228 503.111C284.217 504.084 284.772 505.403 284.772 506.778H274.227C274.227 505.403 274.783 504.084 275.771 503.111C276.76 502.139 278.101 501.593 279.5 501.593Z" fill="#3E424D"/>
<path d="M247.866 550.172H249.742C248.86 552.076 247.11 553.182 244.982 553.182C241.944 553.182 239.55 550.816 239.55 547.82C239.55 544.838 241.902 542.472 244.884 542.472C247.054 542.472 248.874 543.606 249.728 545.524H247.922C247.18 544.488 246.242 544.026 244.926 544.026C242.798 544.026 241.188 545.65 241.188 547.806C241.188 549.92 242.882 551.628 244.954 551.628C246.102 551.628 246.956 551.208 247.866 550.172ZM250.745 549.164C250.745 546.812 252.425 545.09 254.721 545.09C255.911 545.09 256.737 545.496 257.409 546.42V545.272H258.893V553H257.409V551.88C256.653 552.804 255.883 553.182 254.721 553.182C252.411 553.182 250.745 551.488 250.745 549.164ZM252.341 549.178C252.341 550.648 253.419 551.726 254.889 551.726C256.345 551.726 257.381 550.648 257.381 549.15C257.381 547.638 256.303 546.546 254.819 546.546C253.405 546.546 252.341 547.68 252.341 549.178ZM260.487 553V545.272H262.447L264.897 550.004L267.347 545.272H269.293V553H267.711V547.414L265.401 551.922H264.379L262.069 547.414V553H260.487ZM270.556 549.15C270.556 546.854 272.348 545.09 274.672 545.09C276.926 545.09 278.718 546.896 278.718 549.15C278.718 551.404 276.926 553.182 274.672 553.182C272.362 553.182 270.556 551.404 270.556 549.15ZM274.644 551.726C276.044 551.726 277.108 550.606 277.108 549.164C277.108 547.68 276.03 546.546 274.602 546.546C273.244 546.546 272.152 547.694 272.152 549.15C272.152 550.592 273.244 551.726 274.644 551.726ZM279.97 553V545.272H283.12C284.898 545.272 285.948 546.126 285.948 547.54C285.948 548.114 285.556 548.716 284.996 548.94C285.794 549.234 286.256 549.836 286.256 550.564C286.256 551.964 285.094 553 283.512 553H279.97ZM281.552 548.38H283.05C283.932 548.38 284.436 548.072 284.436 547.54C284.436 547.008 283.946 546.714 283.05 546.714H281.552V548.38ZM281.552 551.558H283.344C284.156 551.558 284.646 551.18 284.646 550.564C284.646 549.962 284.17 549.598 283.344 549.598H281.552V551.558ZM289.099 551.558H290.667C291.451 551.558 291.913 551.166 291.913 550.536C291.913 549.906 291.451 549.514 290.667 549.514H289.099V551.558ZM287.517 553V545.272H289.099V548.072H290.849C292.389 548.072 293.509 549.122 293.509 550.536C293.509 551.95 292.389 553 290.849 553H287.517ZM294.293 553V545.272H295.875V553H294.293ZM297.47 553V545.272H300.62C302.398 545.272 303.448 546.126 303.448 547.54C303.448 548.114 303.056 548.716 302.496 548.94C303.294 549.234 303.756 549.836 303.756 550.564C303.756 551.964 302.594 553 301.012 553H297.47ZM299.052 548.38H300.55C301.432 548.38 301.936 548.072 301.936 547.54C301.936 547.008 301.446 546.714 300.55 546.714H299.052V548.38ZM299.052 551.558H300.844C301.656 551.558 302.146 551.18 302.146 550.564C302.146 549.962 301.67 549.598 300.844 549.598H299.052V551.558ZM304.681 549.15C304.681 546.854 306.473 545.09 308.797 545.09C311.051 545.09 312.843 546.896 312.843 549.15C312.843 551.404 311.051 553.182 308.797 553.182C306.487 553.182 304.681 551.404 304.681 549.15ZM308.769 551.726C310.169 551.726 311.233 550.606 311.233 549.164C311.233 547.68 310.155 546.546 308.727 546.546C307.369 546.546 306.277 547.694 306.277 549.15C306.277 550.592 307.369 551.726 308.769 551.726ZM313.689 550.634H315.271C315.327 551.264 315.887 551.726 316.601 551.726C317.343 551.726 317.931 551.236 317.931 550.634C317.931 549.864 317.343 549.528 316.055 549.528V548.422C317.147 548.422 317.651 548.1 317.651 547.428C317.651 546.938 317.189 546.532 316.601 546.532C316.027 546.532 315.579 546.896 315.495 547.428H313.983C314.067 546.084 315.187 545.09 316.601 545.09C318.057 545.09 319.205 546.126 319.205 547.428C319.205 548.114 318.771 548.702 318.099 548.884V548.926C318.953 549.15 319.527 549.836 319.527 550.634C319.527 552.048 318.225 553.182 316.615 553.182C315.047 553.182 313.773 552.076 313.689 550.634Z" fill="#3E424D"/>
</g>
<rect x="229.417" y="482.417" width="100.167" height="100.167" rx="50.0833" stroke="#F4F4F4" stroke-width="4.83333"/>
<g clip-path="url(#clip8_18131_6848)">
<rect x="593" y="499" width="105" height="105" rx="52.5" fill="#F4F4F4"/>
<path d="M648.59 541.437L655.385 541.437L655.385 539.77L648.59 539.77L648.59 541.437ZM648.59 536.82L655.385 536.82L655.385 535.153L648.59 535.153L648.59 536.82ZM634.615 546.18L645.642 546.18L645.642 545.903C645.642 544.931 645.153 544.178 644.175 543.645C643.197 543.112 641.848 542.845 640.128 542.845C638.408 542.845 637.059 543.112 636.08 543.645C635.101 544.178 634.613 544.931 634.615 545.903L634.615 546.18ZM640.128 540.153C640.832 540.153 641.424 539.913 641.905 539.432C642.387 538.949 642.628 538.357 642.628 537.653C642.628 536.95 642.387 536.358 641.905 535.877C641.423 535.396 640.831 535.154 640.128 535.153C639.426 535.152 638.834 535.393 638.352 535.877C637.869 536.36 637.628 536.952 637.628 537.653C637.628 538.354 637.869 538.947 638.352 539.432C638.834 539.916 639.426 540.157 640.128 540.153ZM632.693 552.333C631.926 552.333 631.285 552.077 630.772 551.563C630.258 551.05 630.001 550.409 630 549.64L630 531.693C630 530.926 630.257 530.285 630.772 529.772C631.286 529.258 631.926 529.001 632.692 529L657.308 529C658.075 529 658.715 529.257 659.228 529.772C659.742 530.286 659.999 530.927 660 531.693L660 549.642C660 550.408 659.743 551.049 659.228 551.563C658.714 552.078 658.074 552.334 657.308 552.333L632.693 552.333Z" fill="#3A404D"/>
<path d="M626.4 569.793H627.338C628.066 569.793 628.5 569.751 628.92 569.653C629.564 569.457 629.956 568.897 629.956 568.141C629.956 566.671 628.542 566.545 627.422 566.545H626.4V569.793ZM624.776 571.333V560.987H630.95V562.527H626.4V565.005H627.478C628.934 565.005 629.634 565.131 630.25 565.495C631.09 565.985 631.594 566.993 631.594 568.155C631.594 569.331 631.118 570.283 630.278 570.801C629.634 571.193 628.878 571.333 627.436 571.333H624.776ZM632.864 573.951V563.605H634.348V564.655C634.964 563.857 635.902 563.423 637.05 563.423C639.304 563.423 640.97 565.131 640.97 567.455C640.97 569.779 639.29 571.515 637.036 571.515C635.972 571.515 635.16 571.165 634.446 570.409V573.951H632.864ZM636.882 570.059C638.296 570.059 639.374 568.939 639.374 567.497C639.374 565.985 638.296 564.879 636.84 564.879C635.426 564.879 634.348 566.013 634.348 567.497C634.348 568.939 635.454 570.059 636.882 570.059ZM641.894 567.483C641.894 565.187 643.686 563.423 646.01 563.423C648.264 563.423 650.056 565.229 650.056 567.483C650.056 569.737 648.264 571.515 646.01 571.515C643.7 571.515 641.894 569.737 641.894 567.483ZM645.982 570.059C647.382 570.059 648.446 568.939 648.446 567.497C648.446 566.013 647.368 564.879 645.94 564.879C644.582 564.879 643.49 566.027 643.49 567.483C643.49 568.925 644.582 570.059 645.982 570.059ZM651.308 571.333V563.605H652.89V566.699H656.698V563.605H658.294V571.333H656.698V568.141H652.89V571.333H651.308ZM661.476 569.891H663.1C663.87 569.891 664.332 569.499 664.332 568.869C664.332 568.239 663.87 567.847 663.1 567.847H661.476V569.891ZM659.894 571.333V563.605H661.476V566.405H663.268C664.808 566.405 665.942 567.455 665.942 568.869C665.942 570.283 664.808 571.333 663.268 571.333H659.894Z" fill="#3A404D"/>
</g>
<g clip-path="url(#clip9_18131_6848)">
<rect x="67" y="615" width="105" height="105" rx="52.5" fill="#FF2035"/>
<path d="M121.281 655.444C121.403 655.541 121.549 655.598 121.704 655.598C121.736 655.598 121.777 655.598 121.81 655.59L139.672 652.701C140.03 652.644 140.266 652.311 140.209 651.953C139.509 647.607 137.279 643.62 133.918 640.731C130.517 637.817 126.179 636.214 121.704 636.214C121.346 636.214 121.053 636.507 121.053 636.865L121.053 654.956C121.053 655.143 121.134 655.322 121.281 655.444Z" fill="white"/>
<path d="M118.74 657.698L118.74 639.819C118.74 639.461 118.447 639.168 118.089 639.168C113.084 639.168 108.381 641.121 104.841 644.653C101.301 648.193 99.3477 652.896 99.3477 657.909C99.3477 662.922 101.301 667.617 104.841 671.157C108.381 674.697 113.084 676.642 118.089 676.642C121.995 676.642 125.746 675.446 128.92 673.192C129.213 672.98 129.278 672.581 129.075 672.288L118.74 657.698Z" fill="white"/>
<path d="M140.777 655.103C140.753 654.932 140.655 654.777 140.517 654.68C140.378 654.582 140.199 654.533 140.028 654.566L122.166 657.455C121.946 657.487 121.759 657.642 121.67 657.845C121.58 658.049 121.613 658.293 121.743 658.472L132.2 673.234C132.298 673.372 132.452 673.47 132.623 673.502C132.656 673.51 132.696 673.51 132.729 673.51C132.859 673.51 132.997 673.47 133.103 673.388C135.496 671.687 137.481 669.425 138.848 666.837C140.264 664.16 141.005 661.141 141.005 658.097C141.013 657.105 140.932 656.096 140.777 655.103Z" fill="white"/>
<path d="M111.424 695.356H113.3C112.418 697.26 110.668 698.366 108.54 698.366C105.502 698.366 103.108 696 103.108 693.004C103.108 690.022 105.46 687.656 108.442 687.656C110.612 687.656 112.432 688.79 113.286 690.708H111.48C110.738 689.672 109.8 689.21 108.484 689.21C106.356 689.21 104.746 690.834 104.746 692.99C104.746 695.104 106.44 696.812 108.512 696.812C109.66 696.812 110.514 696.392 111.424 695.356ZM114.64 698.184V690.456H116.124V691.324C116.6 690.554 117.048 690.302 118.056 690.274V691.814C116.838 691.856 116.222 692.528 116.222 693.816V698.184H114.64ZM119.124 698.184V690.456H120.608V691.24C121.168 690.54 121.742 690.274 122.666 690.274C123.786 690.274 124.472 690.666 125.032 691.576C125.662 690.68 126.432 690.274 127.566 690.274C129.582 690.274 130.674 691.464 130.674 693.676V698.184H129.078V693.872C129.078 692.444 128.532 691.73 127.44 691.73C126.264 691.73 125.69 692.528 125.69 694.152V698.184H124.108V693.858C124.108 692.43 123.548 691.73 122.414 691.73C121.252 691.73 120.706 692.5 120.706 694.152V698.184H119.124Z" fill="white"/>
</g>
<g clip-path="url(#clip10_18131_6848)">
<path d="M582.814 728.05C584.022 771.653 548.703 808.005 503.928 809.245C459.152 810.485 421.876 776.142 420.668 732.539C419.461 688.936 454.78 652.584 499.555 651.344C544.331 650.104 581.607 684.446 582.814 728.05Z" fill="white"/>
<path d="M482.298 714.945C483.974 718.947 487.177 722.23 491.312 723.954V726.547C491.312 727.258 491.89 727.836 492.602 727.836H513.398C514.11 727.836 514.688 727.258 514.688 726.547V723.954C518.823 722.23 522.026 718.947 523.702 714.945H482.298ZM523.711 707.211H482.289C481.578 707.211 481 707.788 481 708.5C481 709.822 481.156 711.118 481.455 712.367H524.545C524.844 711.118 525 709.822 525 708.5C525 707.788 524.423 707.211 523.711 707.211Z" fill="#FED42A"/>
<path d="M494.353 701.677C493.85 701.174 493.85 700.358 494.353 699.854C495.274 698.933 495.274 697.442 494.353 696.521C492.429 694.597 492.429 691.466 494.353 689.542C494.857 689.038 495.673 689.038 496.176 689.542C496.68 690.045 496.68 690.861 496.176 691.365C495.255 692.286 495.255 693.777 496.176 694.698C498.101 696.622 498.101 699.753 496.176 701.677C495.673 702.18 494.857 702.181 494.353 701.677Z" fill="#FED42A"/>
<path d="M502.088 701.677C501.584 701.174 501.584 700.358 502.088 699.854C503.009 698.933 503.009 697.442 502.088 696.521C500.163 694.597 500.163 691.466 502.088 689.542C502.591 689.038 503.407 689.038 503.911 689.542C504.414 690.045 504.414 690.861 503.911 691.365C502.99 692.286 502.99 693.777 503.911 694.698C505.835 696.622 505.835 699.753 503.911 701.677C503.407 702.18 502.591 702.181 502.088 701.677Z" fill="#FED42A"/>
<path d="M509.822 701.677C509.319 701.174 509.319 700.358 509.822 699.854C510.743 698.933 510.743 697.442 509.822 696.521C507.898 694.597 507.898 691.466 509.822 689.542C510.325 689.038 511.142 689.038 511.645 689.542C512.148 690.045 512.148 690.861 511.645 691.365C510.724 692.286 510.724 693.777 511.645 694.698C513.569 696.622 513.569 699.753 511.645 701.677C511.142 702.18 510.325 702.181 509.822 701.677Z" fill="#FED42A"/>
<path d="M476.472 744.672H478.348C477.466 746.576 475.716 747.682 473.588 747.682C470.55 747.682 468.156 745.316 468.156 742.32C468.156 739.338 470.508 736.972 473.49 736.972C475.66 736.972 477.48 738.106 478.334 740.024H476.528C475.786 738.988 474.848 738.526 473.532 738.526C471.404 738.526 469.794 740.15 469.794 742.306C469.794 744.42 471.488 746.128 473.56 746.128C474.708 746.128 475.562 745.708 476.472 744.672ZM480.99 747.5V741.214H479.114V739.772H484.448V741.214H482.572V747.5H480.99ZM485.135 743.65C485.135 741.354 486.927 739.59 489.251 739.59C491.505 739.59 493.297 741.396 493.297 743.65C493.297 745.904 491.505 747.682 489.251 747.682C486.941 747.682 485.135 745.904 485.135 743.65ZM489.223 746.226C490.623 746.226 491.687 745.106 491.687 743.664C491.687 742.18 490.609 741.046 489.181 741.046C487.823 741.046 486.731 742.194 486.731 743.65C486.731 745.092 487.823 746.226 489.223 746.226ZM493.602 747.5L496.85 739.772H498.208L501.456 747.5H499.776L497.536 741.9L495.282 747.5H493.602ZM501.774 743.65C501.774 741.354 503.566 739.59 505.89 739.59C508.144 739.59 509.936 741.396 509.936 743.65C509.936 745.904 508.144 747.682 505.89 747.682C503.58 747.682 501.774 745.904 501.774 743.65ZM505.862 746.226C507.262 746.226 508.326 745.106 508.326 743.664C508.326 742.18 507.248 741.046 505.82 741.046C504.462 741.046 503.37 742.194 503.37 743.65C503.37 745.092 504.462 746.226 505.862 746.226ZM511.188 747.5V739.772H514.338C516.116 739.772 517.166 740.626 517.166 742.04C517.166 742.614 516.774 743.216 516.214 743.44C517.012 743.734 517.474 744.336 517.474 745.064C517.474 746.464 516.312 747.5 514.73 747.5H511.188ZM512.77 742.88H514.268C515.15 742.88 515.654 742.572 515.654 742.04C515.654 741.508 515.164 741.214 514.268 741.214H512.77V742.88ZM512.77 746.058H514.562C515.374 746.058 515.864 745.68 515.864 745.064C515.864 744.462 515.388 744.098 514.562 744.098H512.77V746.058ZM518.399 743.664C518.399 741.312 520.079 739.59 522.375 739.59C523.565 739.59 524.391 739.996 525.063 740.92V739.772H526.547V747.5H525.063V746.38C524.307 747.304 523.537 747.682 522.375 747.682C520.065 747.682 518.399 745.988 518.399 743.664ZM519.995 743.678C519.995 745.148 521.073 746.226 522.543 746.226C523.999 746.226 525.035 745.148 525.035 743.65C525.035 742.138 523.957 741.046 522.473 741.046C521.059 741.046 519.995 742.18 519.995 743.678ZM532.103 743.23V741.214H530.703C529.919 741.214 529.457 741.592 529.457 742.222C529.457 742.852 529.919 743.23 530.703 743.23H532.103ZM527.539 747.5L529.583 744.532C528.533 744.196 527.861 743.3 527.861 742.222C527.861 740.808 528.981 739.772 530.521 739.772H533.685V747.5H532.103V744.672H531.235L529.429 747.5H527.539ZM464.819 766.5V758.772H466.401V764.26L470.265 758.772H471.875V766.5H470.293V761.026L466.429 766.5H464.819ZM483.222 764.05H485.014C484.286 765.772 482.956 766.682 481.192 766.682C478.882 766.682 477.048 764.89 477.048 762.636C477.048 760.368 478.84 758.59 481.136 758.59C482.942 758.59 484.398 759.598 485.014 761.278H483.222C482.774 760.466 482.074 760.046 481.136 760.046C479.694 760.046 478.644 761.138 478.644 762.636C478.644 764.106 479.736 765.226 481.178 765.226C482.046 765.226 482.648 764.876 483.222 764.05ZM487.532 766.5V760.214H485.656V758.772H490.99V760.214H489.114V766.5H487.532ZM492.013 769.118V758.772H493.497V759.822C494.113 759.024 495.051 758.59 496.199 758.59C498.453 758.59 500.119 760.298 500.119 762.622C500.119 764.946 498.439 766.682 496.185 766.682C495.121 766.682 494.309 766.332 493.595 765.576V769.118H492.013ZM496.031 765.226C497.445 765.226 498.523 764.106 498.523 762.664C498.523 761.152 497.445 760.046 495.989 760.046C494.575 760.046 493.497 761.18 493.497 762.664C493.497 764.106 494.603 765.226 496.031 765.226ZM501.378 766.5V758.772H502.96V764.26L506.824 758.772H508.434V766.5H506.852V761.026L502.988 766.5H501.378ZM511.334 766.5V760.214H509.458V758.772H514.792V760.214H512.916V766.5H511.334ZM519.694 769.118V766.654C516.866 766.458 515.508 765.156 515.508 762.65C515.508 760.144 516.866 758.828 519.694 758.632V756.154H521.276V758.632C524.09 758.828 525.448 760.13 525.448 762.65C525.448 765.156 524.104 766.458 521.276 766.654V769.118H519.694ZM519.694 765.184V760.088C517.93 760.27 517.118 761.068 517.118 762.65C517.118 764.218 517.916 765.016 519.694 765.184ZM521.276 760.088V765.184C523.054 765.016 523.852 764.232 523.852 762.65C523.852 761.068 523.04 760.27 521.276 760.088ZM527.523 769.118L528.909 765.926L526.025 758.772H527.817L529.777 764.162L531.891 758.772H533.683L529.231 769.118H527.523ZM532.713 768.32V765.058H533.847L536.521 758.772H538.005L540.679 765.058H541.813V768.32H540.679L540.301 766.5H534.239L533.847 768.32H532.713ZM535.499 765.058H539.027L537.263 760.872L535.499 765.058Z" fill="#1D2122"/>
</g>
<rect x="423.5" y="653.5" width="159" height="159" rx="79.5" stroke="#F4F4F4" stroke-width="5"/>
<g clip-path="url(#clip11_18131_6848)">
<rect x="198" y="707" width="164" height="164" rx="82" fill="white"/>
<path d="M292.242 767.385H263.171C262.821 767.385 262.484 767.535 262.237 767.801C261.989 768.068 261.85 768.43 261.85 768.808V777.346C261.854 779.769 262.335 782.163 263.261 784.371C264.188 786.579 265.539 788.55 267.225 790.154H263.171C262.821 790.154 262.484 790.304 262.237 790.571C261.989 790.838 261.85 791.199 261.85 791.577C261.85 791.954 261.989 792.316 262.237 792.583C262.484 792.85 262.821 793 263.171 793H292.242C292.593 793 292.929 792.85 293.177 792.583C293.425 792.316 293.564 791.954 293.564 791.577C293.564 791.199 293.425 790.838 293.177 790.571C292.929 790.304 292.593 790.154 292.242 790.154H288.189C290.213 788.222 291.747 785.768 292.649 783.022C294.327 782.911 295.903 782.115 297.055 780.796C298.207 779.477 298.849 777.734 298.85 775.923V774.5C298.85 772.613 298.153 770.803 296.914 769.469C295.675 768.134 293.995 767.385 292.242 767.385ZM296.207 775.923C296.206 776.844 295.929 777.74 295.417 778.477C294.905 779.214 294.186 779.754 293.366 780.014C293.496 779.132 293.563 778.24 293.564 777.346V770.476C294.337 770.77 295.006 771.315 295.479 772.036C295.952 772.757 296.206 773.617 296.207 774.5V775.923ZM276.385 763.115V757.423C276.385 757.046 276.525 756.684 276.772 756.417C277.02 756.15 277.356 756 277.707 756C278.057 756 278.393 756.15 278.641 756.417C278.889 756.684 279.028 757.046 279.028 757.423V763.115C279.028 763.493 278.889 763.855 278.641 764.122C278.393 764.389 278.057 764.538 277.707 764.538C277.356 764.538 277.02 764.389 276.772 764.122C276.525 763.855 276.385 763.493 276.385 763.115ZM281.671 763.115V757.423C281.671 757.046 281.81 756.684 282.058 756.417C282.306 756.15 282.642 756 282.992 756C283.343 756 283.679 756.15 283.927 756.417C284.175 756.684 284.314 757.046 284.314 757.423V763.115C284.314 763.493 284.175 763.855 283.927 764.122C283.679 764.389 283.343 764.538 282.992 764.538C282.642 764.538 282.306 764.389 282.058 764.122C281.81 763.855 281.671 763.493 281.671 763.115ZM271.1 763.115V757.423C271.1 757.046 271.239 756.684 271.487 756.417C271.734 756.15 272.071 756 272.421 756C272.772 756 273.108 756.15 273.355 756.417C273.603 756.684 273.742 757.046 273.742 757.423V763.115C273.742 763.493 273.603 763.855 273.355 764.122C273.108 764.389 272.772 764.538 272.421 764.538C272.071 764.538 271.734 764.389 271.487 764.122C271.239 763.855 271.1 763.493 271.1 763.115Z" fill="#3E424D"/>
<path d="M249.701 812V801.654H251.325V806.218L255.035 801.654H257.023L252.725 806.75L257.023 812H255.021L251.325 807.366V812H249.701ZM257.631 808.15C257.631 805.854 259.423 804.09 261.747 804.09C264.001 804.09 265.793 805.896 265.793 808.15C265.793 810.404 264.001 812.182 261.747 812.182C259.437 812.182 257.631 810.404 257.631 808.15ZM261.719 810.726C263.119 810.726 264.183 809.606 264.183 808.164C264.183 806.68 263.105 805.546 261.677 805.546C260.319 805.546 259.227 806.694 259.227 808.15C259.227 809.592 260.319 810.726 261.719 810.726ZM270.923 814.618V812.154C268.095 811.958 266.737 810.656 266.737 808.15C266.737 805.644 268.095 804.328 270.923 804.132V801.654H272.505V804.132C275.319 804.328 276.677 805.63 276.677 808.15C276.677 810.656 275.333 811.958 272.505 812.154V814.618H270.923ZM270.923 810.684V805.588C269.159 805.77 268.347 806.568 268.347 808.15C268.347 809.718 269.145 810.516 270.923 810.684ZM272.505 805.588V810.684C274.283 810.516 275.081 809.732 275.081 808.15C275.081 806.568 274.269 805.77 272.505 805.588ZM283.779 809.634H285.501C284.997 811.132 283.485 812.182 281.791 812.182C279.453 812.182 277.647 810.418 277.647 808.15C277.647 805.882 279.425 804.09 281.693 804.09C283.961 804.09 285.711 805.868 285.711 808.178C285.711 808.43 285.683 808.584 285.641 808.808H279.327C279.509 809.942 280.489 810.726 281.749 810.726C282.659 810.726 283.317 810.348 283.779 809.634ZM279.299 807.394H284.129C283.849 806.232 282.967 805.546 281.707 805.546C280.475 805.546 279.593 806.232 279.299 807.394ZM288.198 801.556H289.486C289.486 802.284 289.794 802.606 290.452 802.606C291.11 802.606 291.418 802.284 291.418 801.556H292.706C292.496 802.76 291.74 803.376 290.452 803.376C289.164 803.376 288.408 802.76 288.198 801.556ZM286.924 812V804.272H288.506V809.76L292.37 804.272H293.98V812H292.398V806.526L288.534 812H286.924ZM295.579 812V804.272H297.161V807.366H300.969V804.272H302.565V812H300.969V808.808H297.161V812H295.579ZM304.165 812V804.272H305.747V809.76L309.611 804.272H311.221V812H309.639V806.526L305.775 812H304.165Z" fill="#1D2122"/>
</g>
<rect x="201.075" y="710.075" width="157.85" height="157.85" rx="78.925" stroke="#F4F4F4" stroke-width="6.15"/>
<g clip-path="url(#clip12_18131_6848)">
<rect x="841" y="668" width="136" height="136" rx="68" fill="white"/>
<g clip-path="url(#clip13_18131_6848)">
<path d="M908.381 722.894C910.397 720.725 912.739 718.922 915.289 717.516C914.821 711.935 912.463 706.517 908.144 702.346C903.933 706.706 901.665 712.194 901.301 717.759C903.888 719.086 906.291 720.797 908.381 722.894Z" fill="#FED42A"/>
<path d="M914.601 722.697C914.796 722.566 915.003 722.444 915.204 722.305C915.004 722.449 914.785 722.576 914.581 722.712C912.172 724.502 910.105 726.736 908.495 729.293C906.804 726.805 904.671 724.652 902.215 722.949C902.266 722.982 902.317 723.014 902.367 723.049C902.294 722.996 902.218 722.946 902.141 722.898C898.191 720.182 893.409 718.628 888.279 718.717C888.464 729.36 895.35 738.275 904.769 741.436C906.049 741.865 907.366 742.182 908.722 742.399C910.07 742.146 911.376 741.782 912.639 741.3C921.944 737.813 928.515 728.664 928.33 718.021C923.191 718.11 918.459 719.836 914.601 722.697Z" fill="#FED42A"/>
</g>
<path d="M901.872 758.922H903.748C902.866 760.826 901.116 761.932 898.988 761.932C895.95 761.932 893.556 759.566 893.556 756.57C893.556 753.588 895.908 751.222 898.89 751.222C901.06 751.222 902.88 752.356 903.734 754.274H901.928C901.186 753.238 900.248 752.776 898.932 752.776C896.804 752.776 895.194 754.4 895.194 756.556C895.194 758.67 896.888 760.378 898.96 760.378C900.108 760.378 900.962 759.958 901.872 758.922ZM905.311 761.75V751.404H912.605V761.75H910.981V752.944H906.935V761.75H905.311ZM913.739 761.75L918.093 751.404H919.493L923.875 761.75H922.083L920.851 758.81H916.791L915.517 761.75H913.739ZM917.379 757.27H920.193L918.793 753.602L917.379 757.27Z" fill="#3E424D"/>
</g>
<rect x="843.5" y="670.5" width="131" height="131" rx="65.5" stroke="#F4F4F4" stroke-width="5"/>
<path d="M1080.26 501.763C1081.32 540.212 1050.16 572.357 1010.55 573.454C970.937 574.551 938.049 544.179 936.985 505.73C935.92 467.281 967.077 435.135 1006.69 434.038C1046.3 432.941 1079.19 463.314 1080.26 501.763Z" fill="white" stroke="#F4F4F4" stroke-width="4"/>
<rect x="2.5" y="445.5" width="131" height="131" rx="65.5" fill="white"/>
<rect x="2.5" y="445.5" width="131" height="131" rx="65.5" stroke="#F4F4F4" stroke-width="5"/>
<path d="M48.8496 509.556C48.8496 508.778 49.4964 508.148 50.2941 508.148H50.3096C50.4803 500.387 52.4156 493.19 66.1829 492.713V491.259C65.3853 491.259 64.7385 490.629 64.7385 489.852C64.7385 489.075 65.3853 488.444 66.1829 488.444H69.0718C69.8702 488.444 70.5163 489.075 70.5163 489.852C70.5163 490.629 69.8702 491.259 69.0718 491.259V492.713C82.8392 493.19 84.7731 500.387 84.9452 508.148H84.9607C85.7591 508.148 86.4052 508.778 86.4052 509.556C86.4052 510.333 85.7591 510.963 84.9607 510.963H50.2941C49.4964 510.963 48.8496 510.333 48.8496 509.556ZM69.0761 499.691C69.0133 500.466 69.6064 501.143 70.402 501.205C74.827 501.547 75.5126 502.8 75.9076 504.279C76.0768 504.913 76.6622 505.333 77.304 505.333C77.4239 505.333 77.5467 505.319 77.668 505.288C78.441 505.093 78.9036 504.325 78.7033 503.573C77.8245 500.273 75.4858 498.774 70.6305 498.399C69.8138 498.339 69.1395 498.916 69.0761 499.691ZM67.6274 485.63C68.4251 485.63 69.0718 484.999 69.0718 484.222V481.407C69.0718 480.63 68.4251 480 67.6274 480C66.8297 480 66.1829 480.63 66.1829 481.407V484.222C66.1829 484.999 66.8297 485.63 67.6274 485.63ZM52.1617 488.032C52.4438 488.307 52.8134 488.444 53.1829 488.444C53.5525 488.444 53.9221 488.307 54.2042 488.032C54.7684 487.482 54.7684 486.592 54.2042 486.042L52.7598 484.635C52.1955 484.085 51.2815 484.085 50.7172 484.635C50.153 485.184 50.153 486.075 50.7172 486.625L52.1617 488.032ZM82.0718 488.444C82.4414 488.444 82.811 488.307 83.0931 488.032L84.5375 486.625C85.1018 486.075 85.1018 485.184 84.5375 484.635C83.9733 484.085 83.0592 484.085 82.495 484.635L81.0506 486.042C80.4863 486.592 80.4863 487.482 81.0506 488.032C81.3327 488.307 81.7023 488.444 82.0718 488.444Z" fill="#FED42A"/>
<path d="M47.3696 531.834C47.3696 528.824 49.7776 526.472 52.8576 526.472C55.7976 526.472 58.1916 528.88 58.1916 531.82C58.1916 534.816 55.8256 537.182 52.8156 537.182C49.7916 537.182 47.3696 534.802 47.3696 531.834ZM49.0076 531.82C49.0076 533.948 50.7016 535.628 52.8156 535.628C54.9156 535.628 56.5536 533.976 56.5536 531.848C56.5536 529.678 54.9016 528.026 52.7316 528.026C50.6876 528.026 49.0076 529.734 49.0076 531.82ZM60.8318 537V530.714H58.9558V529.272H64.2898V530.714H62.4138V537H60.8318ZM71.109 534.634H72.831C72.327 536.132 70.815 537.182 69.121 537.182C66.783 537.182 64.977 535.418 64.977 533.15C64.977 530.882 66.755 529.09 69.023 529.09C71.291 529.09 73.041 530.868 73.041 533.178C73.041 533.43 73.013 533.584 72.971 533.808H66.657C66.839 534.942 67.819 535.726 69.079 535.726C69.989 535.726 70.647 535.348 71.109 534.634ZM66.629 532.394H71.459C71.179 531.232 70.297 530.546 69.037 530.546C67.805 530.546 66.923 531.232 66.629 532.394ZM73.3074 537L76.5554 529.272H77.9134L81.1614 537H79.4814L77.2414 531.4L74.9874 537H73.3074ZM82.0201 537V529.272H83.6021V534.76L87.4661 529.272H89.0761V537H87.4941V531.526L83.6301 537H82.0201Z" fill="#3E424D"/>
<g clip-path="url(#clip14_18131_6848)">
<rect x="306" y="195" width="105" height="105" rx="52.5" fill="#F4F4F4"/>
<path d="M345.375 244.031C345.375 244.901 345.721 245.736 346.336 246.351C346.951 246.967 347.786 247.312 348.656 247.312H368.344C369.214 247.312 370.049 246.967 370.664 246.351C371.279 245.736 371.625 244.901 371.625 244.031V235.008H345.375V244.031ZM349.242 239.578C349.242 239.112 349.427 238.665 349.757 238.335C350.087 238.006 350.534 237.82 351 237.82H353.812C354.279 237.82 354.726 238.006 355.055 238.335C355.385 238.665 355.57 239.112 355.57 239.578V240.75C355.57 241.216 355.385 241.663 355.055 241.993C354.726 242.323 354.279 242.508 353.812 242.508H351C350.534 242.508 350.087 242.323 349.757 241.993C349.427 241.663 349.242 241.216 349.242 240.75V239.578ZM368.344 226.688H348.656C347.786 226.688 346.951 227.033 346.336 227.649C345.721 228.264 345.375 229.099 345.375 229.969V231.492H371.625V229.969C371.625 229.099 371.279 228.264 370.664 227.649C370.049 227.033 369.214 226.688 368.344 226.688Z" fill="#3A404D"/>
<path d="M332.632 261.147C332.632 258.136 335.04 255.784 338.12 255.784C341.06 255.784 343.454 258.193 343.454 261.133C343.454 264.129 341.088 266.495 338.078 266.495C335.054 266.495 332.632 264.115 332.632 261.147ZM334.27 261.133C334.27 263.261 335.964 264.941 338.078 264.941C340.178 264.941 341.816 263.289 341.816 261.161C341.816 258.991 340.164 257.339 337.994 257.339C335.95 257.339 334.27 259.047 334.27 261.133ZM344.792 266.313V258.585H351.75V266.313H350.168V260.027H346.374V266.313H344.792ZM352.609 266.313L355.857 258.585H357.215L360.463 266.313H358.783L356.543 260.713L354.289 266.313H352.609ZM360.78 262.477C360.78 260.125 362.46 258.403 364.756 258.403C365.946 258.403 366.772 258.809 367.444 259.733V258.585H368.928V266.313H367.444V265.193C366.688 266.117 365.918 266.495 364.756 266.495C362.446 266.495 360.78 264.801 360.78 262.477ZM362.376 262.491C362.376 263.961 363.454 265.039 364.924 265.039C366.38 265.039 367.416 263.961 367.416 262.463C367.416 260.951 366.338 259.859 364.854 259.859C363.44 259.859 362.376 260.993 362.376 262.491ZM371.825 266.313V260.027H369.949V258.585H375.283V260.027H373.407V266.313H371.825ZM375.97 262.477C375.97 260.125 377.65 258.403 379.946 258.403C381.136 258.403 381.962 258.809 382.634 259.733V258.585H384.118V266.313H382.634V265.193C381.878 266.117 381.108 266.495 379.946 266.495C377.636 266.495 375.97 264.801 375.97 262.477ZM377.566 262.491C377.566 263.961 378.644 265.039 380.114 265.039C381.57 265.039 382.606 263.961 382.606 262.463C382.606 260.951 381.528 259.859 380.044 259.859C378.63 259.859 377.566 260.993 377.566 262.491Z" fill="#3E424D"/>
</g>
<rect x="308.417" y="197.417" width="100.167" height="100.167" rx="50.0833" stroke="#F4F4F4" stroke-width="4.83333"/>
<path d="M1005.78 468.088C1006.36 466.789 1008.14 466.726 1008.83 467.893L1008.94 468.088L1010.72 472.094C1012.27 475.591 1014.86 478.53 1018.12 480.518L1018.67 480.84L1021.84 482.617C1022.09 482.758 1022.3 482.959 1022.45 483.203C1022.61 483.446 1022.7 483.724 1022.71 484.012C1022.73 484.299 1022.68 484.587 1022.56 484.848C1022.44 485.109 1022.25 485.336 1022.02 485.508L1021.84 485.627L1018.67 487.404C1015.34 489.28 1012.66 492.13 1010.98 495.573L1010.72 496.151L1008.94 500.157C1008.36 501.455 1006.58 501.518 1005.88 500.351L1005.78 500.157L1004 496.151C1002.45 492.654 999.863 489.715 996.593 487.727L996.043 487.404L992.883 485.627C992.631 485.487 992.419 485.285 992.266 485.042C992.112 484.798 992.022 484.52 992.004 484.233C991.985 483.945 992.039 483.658 992.16 483.397C992.281 483.135 992.465 482.908 992.696 482.737L992.881 482.617L996.043 480.84C999.379 478.964 1002.06 476.114 1003.73 472.671L1004 472.094L1005.78 468.088ZM1021.4 467.246C1022.25 469.172 1023.7 470.774 1025.53 471.814C1025.8 471.967 1025.8 472.36 1025.53 472.514C1023.7 473.554 1022.25 475.157 1021.4 477.084C1021.37 477.156 1021.32 477.218 1021.25 477.261C1021.18 477.304 1021.11 477.327 1021.03 477.327C1020.95 477.327 1020.87 477.304 1020.8 477.261C1020.74 477.218 1020.68 477.156 1020.65 477.084C1019.8 475.157 1018.35 473.555 1016.52 472.516C1016.46 472.481 1016.41 472.43 1016.38 472.368C1016.34 472.307 1016.32 472.237 1016.32 472.166C1016.32 472.094 1016.34 472.025 1016.38 471.963C1016.41 471.902 1016.46 471.851 1016.52 471.815C1018.36 470.775 1019.8 469.172 1020.65 467.244C1020.68 467.171 1020.74 467.11 1020.8 467.066C1020.87 467.023 1020.95 467 1021.03 467C1021.11 467 1021.18 467.023 1021.25 467.066C1021.32 467.11 1021.37 467.171 1021.4 467.244L1021.4 467.246Z" fill="#3A404D"/>
<path d="M953.417 520.46H954.355C955.083 520.46 955.517 520.418 955.937 520.32C956.581 520.124 956.973 519.564 956.973 518.808C956.973 517.338 955.559 517.212 954.439 517.212H953.417V520.46ZM951.793 522V511.654H957.967V513.194H953.417V515.672H954.495C955.951 515.672 956.651 515.798 957.267 516.162C958.107 516.652 958.611 517.66 958.611 518.822C958.611 519.998 958.135 520.95 957.295 521.468C956.651 521.86 955.895 522 954.453 522H951.793ZM959.882 524.618V514.272H961.366V515.322C961.982 514.524 962.92 514.09 964.068 514.09C966.322 514.09 967.988 515.798 967.988 518.122C967.988 520.446 966.308 522.182 964.054 522.182C962.99 522.182 962.178 521.832 961.464 521.076V524.618H959.882ZM963.9 520.726C965.314 520.726 966.392 519.606 966.392 518.164C966.392 516.652 965.314 515.546 963.858 515.546C962.444 515.546 961.366 516.68 961.366 518.164C961.366 519.606 962.472 520.726 963.9 520.726ZM975.043 519.634H976.765C976.261 521.132 974.749 522.182 973.055 522.182C970.717 522.182 968.911 520.418 968.911 518.15C968.911 515.882 970.689 514.09 972.957 514.09C975.225 514.09 976.975 515.868 976.975 518.178C976.975 518.43 976.947 518.584 976.905 518.808H970.591C970.773 519.942 971.753 520.726 973.013 520.726C973.923 520.726 974.581 520.348 975.043 519.634ZM970.563 517.394H975.393C975.113 516.232 974.231 515.546 972.971 515.546C971.739 515.546 970.857 516.232 970.563 517.394ZM978.189 522V514.272H979.771V517.366H983.579V514.272H985.175V522H983.579V518.808H979.771V522H978.189ZM986.145 523.82V520.558H987.279L989.953 514.272H991.437L994.111 520.558H995.245V523.82H994.111L993.733 522H987.671L987.279 523.82H986.145ZM988.931 520.558H992.459L990.695 516.372L988.931 520.558ZM996.208 522V514.272H997.79V519.76L1001.65 514.272H1003.26V522H1001.68V516.526L997.818 522H996.208ZM1004.86 524.618V514.272H1006.35V515.322C1006.96 514.524 1007.9 514.09 1009.05 514.09C1011.3 514.09 1012.97 515.798 1012.97 518.122C1012.97 520.446 1011.29 522.182 1009.03 522.182C1007.97 522.182 1007.16 521.832 1006.44 521.076V524.618H1004.86ZM1008.88 520.726C1010.29 520.726 1011.37 519.606 1011.37 518.164C1011.37 516.652 1010.29 515.546 1008.84 515.546C1007.42 515.546 1006.35 516.68 1006.35 518.164C1006.35 519.606 1007.45 520.726 1008.88 520.726ZM1013.89 518.15C1013.89 515.854 1015.68 514.09 1018.01 514.09C1020.26 514.09 1022.05 515.896 1022.05 518.15C1022.05 520.404 1020.26 522.182 1018.01 522.182C1015.7 522.182 1013.89 520.404 1013.89 518.15ZM1017.98 520.726C1019.38 520.726 1020.44 519.606 1020.44 518.164C1020.44 516.68 1019.37 515.546 1017.94 515.546C1016.58 515.546 1015.49 516.694 1015.49 518.15C1015.49 519.592 1016.58 520.726 1017.98 520.726ZM1023.31 522V514.272H1026.46C1028.23 514.272 1029.28 515.126 1029.28 516.54C1029.28 517.114 1028.89 517.716 1028.33 517.94C1029.13 518.234 1029.59 518.836 1029.59 519.564C1029.59 520.964 1028.43 522 1026.85 522H1023.31ZM1024.89 517.38H1026.39C1027.27 517.38 1027.77 517.072 1027.77 516.54C1027.77 516.008 1027.28 515.714 1026.39 515.714H1024.89V517.38ZM1024.89 520.558H1026.68C1027.49 520.558 1027.98 520.18 1027.98 519.564C1027.98 518.962 1027.51 518.598 1026.68 518.598H1024.89V520.558ZM1030.52 518.164C1030.52 515.812 1032.2 514.09 1034.49 514.09C1035.68 514.09 1036.51 514.496 1037.18 515.42V514.272H1038.66V522H1037.18V520.88C1036.42 521.804 1035.65 522.182 1034.49 522.182C1032.18 522.182 1030.52 520.488 1030.52 518.164ZM1032.11 518.178C1032.11 519.648 1033.19 520.726 1034.66 520.726C1036.12 520.726 1037.15 519.648 1037.15 518.15C1037.15 516.638 1036.07 515.546 1034.59 515.546C1033.18 515.546 1032.11 516.68 1032.11 518.178ZM1040.26 522V514.272H1041.84V517.366H1045.65V514.272H1047.24V522H1045.65V518.808H1041.84V522H1040.26ZM1048.84 522V514.272H1050.43V517.366H1054.23V514.272H1055.83V522H1054.23V518.808H1050.43V522H1048.84ZM1057.43 522V514.272H1059.01V519.76L1062.88 514.272H1064.49V522H1062.9V516.526L1059.04 522H1057.43ZM1071.88 519.634H1073.6C1073.1 521.132 1071.59 522.182 1069.89 522.182C1067.56 522.182 1065.75 520.418 1065.75 518.15C1065.75 515.882 1067.53 514.09 1069.8 514.09C1072.06 514.09 1073.81 515.868 1073.81 518.178C1073.81 518.43 1073.79 518.584 1073.74 518.808H1067.43C1067.61 519.942 1068.59 520.726 1069.85 520.726C1070.76 520.726 1071.42 520.348 1071.88 519.634ZM1067.4 517.394H1072.23C1071.95 516.232 1071.07 515.546 1069.81 515.546C1068.58 515.546 1067.7 516.232 1067.4 517.394Z" fill="#3E424D"/>
<path d="M586.692 375.857C566.926 382.095 530.266 397.262 510.5 403.5M589.021 377.839C587.066 377.173 586.043 374.986 586.736 372.956C587.428 370.926 589.574 369.821 591.529 370.488C593.484 371.155 594.507 373.341 593.814 375.371C593.122 377.401 590.976 378.506 589.021 377.839Z" stroke="#F4F4F4" stroke-width="4"/>
<path d="M407.371 353.841C397.88 335.414 389.254 318.426 379.763 300M405.811 356.471C406.138 354.432 408.119 353.054 410.237 353.393C412.355 353.732 413.807 355.661 413.48 357.7C413.154 359.739 411.172 361.117 409.054 360.778C406.936 360.439 405.484 358.51 405.811 356.471Z" stroke="#F4F4F4" stroke-width="4"/>
<path d="M396.34 456.192L336.532 516M398.919 458.408C396.682 458.577 394.731 456.901 394.561 454.664C394.392 452.427 396.068 450.476 398.305 450.307C400.542 450.137 402.493 451.813 402.662 454.051C402.832 456.288 401.156 458.238 398.919 458.408Z" stroke="#F4F4F4" stroke-width="4"/>
<path d="M164.554 708.968L183.711 724.629L202.868 740.29M168.235 707.992C168.441 710.047 166.879 711.886 164.744 712.101C162.61 712.315 160.713 710.823 160.506 708.768C160.3 706.713 161.863 704.873 163.997 704.659C166.131 704.445 168.029 705.937 168.235 707.992Z" stroke="#F4F4F4" stroke-width="4"/>
<path d="M611.39 603.928L559.875 672.99M611.928 607.698C609.863 607.662 608.22 605.895 608.257 603.75C608.294 601.605 609.999 599.896 612.064 599.932C614.129 599.968 615.772 601.736 615.735 603.88C615.698 606.025 613.993 607.734 611.928 607.698Z" stroke="#F4F4F4" stroke-width="4"/>
<path d="M640.531 745.227L589 745.227M638.925 748.68C637.214 747.524 636.801 745.146 638.002 743.369C639.203 741.591 641.563 741.088 643.275 742.245C644.986 743.401 645.399 745.78 644.198 747.557C642.997 749.334 640.636 749.837 638.925 748.68Z" stroke="#F4F4F4" stroke-width="4"/>
<path d="M237.584 582.564L169 634.714M237.06 586.336C235.085 585.731 233.993 583.578 234.621 581.527C235.25 579.477 237.36 578.304 239.334 578.909C241.309 579.514 242.401 581.667 241.773 583.718C241.145 585.769 239.034 586.941 237.06 586.336Z" stroke="#F4F4F4" stroke-width="4"/>
<path d="M828.033 745.026L764.001 745.026M826.427 748.48C824.716 747.324 824.303 744.946 825.504 743.168C826.705 741.391 829.065 740.888 830.777 742.045C832.488 743.201 832.901 745.579 831.7 747.356C830.499 749.134 828.138 749.637 826.427 748.48Z" stroke="#F4F4F4" stroke-width="4"/>
<g clip-path="url(#clip15_18131_6848)">
<rect x="651" y="679" width="105" height="105" rx="52.5" fill="#F4F4F4"/>
<g clip-path="url(#clip16_18131_6848)">
<path fill-rule="evenodd" clip-rule="evenodd" d="M712.973 704.299C717.048 705.318 718.606 707.888 720.561 711.426H712.973V704.299ZM689.159 711.723C689.956 711.723 690.535 712.138 690.535 713.109C690.535 713.928 689.921 714.592 689.162 714.594H680.844C680.083 714.594 679.467 715.259 679.467 716.079C679.467 716.9 680.083 717.564 680.844 717.564H693.236C694.004 717.564 694.619 718.229 694.619 719.05C694.619 719.87 694.002 720.535 693.242 720.535H680.844C680.083 720.535 679.467 721.199 679.467 722.02C679.467 722.84 680.083 723.505 680.844 723.505H683.873V727.96C683.873 728.781 684.489 729.446 685.25 729.446H688.018C688.511 732.067 690.659 734 693.19 734C695.722 734 697.87 732.067 698.363 729.446H712.344C712.837 732.067 714.985 734 717.517 734C720.048 734 722.196 732.067 722.689 729.446H725.09C725.85 729.446 726.467 728.781 726.467 727.96V719.05C726.467 714.692 722.205 714.403 722.201 714.396H711.596C710.835 714.396 710.219 713.731 710.219 712.911V704H685.25C684.489 704 683.873 704.665 683.873 705.485V708.752H682.221C681.46 708.752 680.844 709.417 680.844 710.238C680.844 711.058 681.46 711.723 682.221 711.723H689.159ZM719.302 726.382C720.287 727.445 720.287 729.169 719.302 730.233C717.716 731.943 714.992 730.726 714.992 728.307C714.992 725.888 717.716 724.671 719.302 726.382ZM694.975 726.382C695.961 727.445 695.961 729.169 694.975 730.233C693.39 731.943 690.666 730.726 690.666 728.307C690.666 725.888 693.39 724.671 694.975 726.382Z" fill="#3E424D"/>
</g>
<path d="M669.052 758.488V754.96H670.326L674.036 746.154H675.45L679.16 754.96H680.42V758.488H679.286L678.894 756.5H670.592L670.2 758.488H669.052ZM672.02 754.96H677.466L674.736 748.436L672.02 754.96ZM681.103 752.65C681.103 750.354 682.895 748.59 685.219 748.59C687.473 748.59 689.265 750.396 689.265 752.65C689.265 754.904 687.473 756.682 685.219 756.682C682.909 756.682 681.103 754.904 681.103 752.65ZM685.191 755.226C686.591 755.226 687.655 754.106 687.655 752.664C687.655 751.18 686.577 750.046 685.149 750.046C683.791 750.046 682.699 751.194 682.699 752.65C682.699 754.092 683.791 755.226 685.191 755.226ZM696.355 754.05H698.147C697.419 755.772 696.089 756.682 694.325 756.682C692.015 756.682 690.181 754.89 690.181 752.636C690.181 750.368 691.973 748.59 694.269 748.59C696.075 748.59 697.531 749.598 698.147 751.278H696.355C695.907 750.466 695.207 750.046 694.269 750.046C692.827 750.046 691.777 751.138 691.777 752.636C691.777 754.106 692.869 755.226 694.311 755.226C695.179 755.226 695.781 754.876 696.355 754.05ZM700.664 756.5V750.214H698.788V748.772H704.122V750.214H702.246V756.5H700.664ZM704.81 752.664C704.81 750.312 706.49 748.59 708.786 748.59C709.976 748.59 710.802 748.996 711.474 749.92V748.772H712.958V756.5H711.474V755.38C710.718 756.304 709.948 756.682 708.786 756.682C706.476 756.682 704.81 754.988 704.81 752.664ZM706.406 752.678C706.406 754.148 707.484 755.226 708.954 755.226C710.41 755.226 711.446 754.148 711.446 752.65C711.446 751.138 710.368 750.046 708.884 750.046C707.47 750.046 706.406 751.18 706.406 752.678ZM714.552 756.5V748.772H717.702C719.48 748.772 720.53 749.626 720.53 751.04C720.53 751.614 720.138 752.216 719.578 752.44C720.376 752.734 720.838 753.336 720.838 754.064C720.838 755.464 719.676 756.5 718.094 756.5H714.552ZM716.134 751.88H717.632C718.514 751.88 719.018 751.572 719.018 751.04C719.018 750.508 718.528 750.214 717.632 750.214H716.134V751.88ZM716.134 755.058H717.926C718.738 755.058 719.228 754.68 719.228 754.064C719.228 753.462 718.752 753.098 717.926 753.098H716.134V755.058ZM722.099 756.5V748.772H723.681V752.3L726.649 748.772H728.595L725.263 752.58L728.707 756.5H726.635L723.681 752.916V756.5H722.099ZM729.214 752.664C729.214 750.312 730.894 748.59 733.19 748.59C734.38 748.59 735.206 748.996 735.878 749.92V748.772H737.362V756.5H735.878V755.38C735.122 756.304 734.352 756.682 733.19 756.682C730.88 756.682 729.214 754.988 729.214 752.664ZM730.81 752.678C730.81 754.148 731.888 755.226 733.358 755.226C734.814 755.226 735.85 754.148 735.85 752.65C735.85 751.138 734.772 750.046 733.288 750.046C731.874 750.046 730.81 751.18 730.81 752.678Z" fill="#3E424D"/>
</g>
<rect x="653.417" y="681.417" width="100.167" height="100.167" rx="50.0833" stroke="#F4F4F4" stroke-width="4.83333"/>
<path d="M797.66 305.7L878.389 305.7M798.765 302.055C800.621 302.96 801.365 305.257 800.425 307.185C799.485 309.113 797.218 309.942 795.362 309.037C793.505 308.132 792.762 305.835 793.702 303.907C794.642 301.979 796.908 301.15 798.765 302.055Z" stroke="#F4F4F4" stroke-width="4"/>
<path d="M205.012 518.409L147.998 517.344M205.471 521.778C203.685 520.42 203.337 517.872 204.695 516.086C206.052 514.3 208.601 513.952 210.387 515.309C212.173 516.667 212.521 519.215 211.163 521.001C209.806 522.787 207.258 523.135 205.471 521.778Z" stroke="#F4F4F4" stroke-width="4"/>
<path d="M455.904 381.786C454.43 381.809 452.989 382.22 451.726 382.978C450.462 383.736 449.421 384.814 448.708 386.103C447.994 384.814 446.953 383.736 445.689 382.978C444.426 382.22 442.984 381.809 441.511 381.786C439.162 381.888 436.949 382.915 435.356 384.644C433.762 386.372 432.918 388.661 433.006 391.01C433.006 396.96 439.269 403.457 444.521 407.863C445.693 408.848 447.176 409.388 448.708 409.388C450.239 409.388 451.722 408.848 452.895 407.863C458.147 403.457 464.409 396.96 464.409 391.01C464.497 388.661 463.653 386.372 462.059 384.644C460.465 382.915 458.253 381.888 455.904 381.786Z" fill="#3E424D"/>
<path d="M405.005 208.5L433 179.044M405.019 204.61C407.085 204.613 408.756 206.355 408.753 208.5C408.75 210.645 407.073 212.381 405.007 212.377C402.942 212.374 401.27 210.633 401.274 208.488C401.277 206.343 402.954 204.607 405.019 204.61Z" stroke="#F4F4F4" stroke-width="4"/>
<path d="M407.541 427L411.909 416.654H413.309L417.677 427H415.913L412.609 418.796L409.305 427H407.541ZM418.254 423.15C418.254 420.854 420.046 419.09 422.37 419.09C424.624 419.09 426.416 420.896 426.416 423.15C426.416 425.404 424.624 427.182 422.37 427.182C420.06 427.182 418.254 425.404 418.254 423.15ZM422.342 425.726C423.742 425.726 424.806 424.606 424.806 423.164C424.806 421.68 423.728 420.546 422.3 420.546C420.942 420.546 419.85 421.694 419.85 423.15C419.85 424.592 420.942 425.726 422.342 425.726ZM431.63 422.73V420.714H430.23C429.446 420.714 428.984 421.092 428.984 421.722C428.984 422.352 429.446 422.73 430.23 422.73H431.63ZM427.066 427L429.11 424.032C428.06 423.696 427.388 422.8 427.388 421.722C427.388 420.308 428.508 419.272 430.048 419.272H433.212V427H431.63V424.172H430.762L428.956 427H427.066ZM434.063 427L437.311 419.272H438.669L441.917 427H440.237L437.997 421.4L435.743 427H434.063ZM444.358 425.558H445.982C446.752 425.558 447.214 425.166 447.214 424.536C447.214 423.906 446.752 423.514 445.982 423.514H444.358V425.558ZM442.776 427V419.272H444.358V422.072H446.15C447.69 422.072 448.824 423.122 448.824 424.536C448.824 425.95 447.69 427 446.15 427H442.776ZM449.926 427V419.272H451.508V422.366H455.316V419.272H456.912V427H455.316V423.808H451.508V427H449.926ZM458.176 423.15C458.176 420.854 459.968 419.09 462.292 419.09C464.546 419.09 466.338 420.896 466.338 423.15C466.338 425.404 464.546 427.182 462.292 427.182C459.982 427.182 458.176 425.404 458.176 423.15ZM462.264 425.726C463.664 425.726 464.728 424.606 464.728 423.164C464.728 421.68 463.65 420.546 462.222 420.546C460.864 420.546 459.772 421.694 459.772 423.15C459.772 424.592 460.864 425.726 462.264 425.726ZM473.428 424.55H475.22C474.492 426.272 473.162 427.182 471.398 427.182C469.088 427.182 467.254 425.39 467.254 423.136C467.254 420.868 469.046 419.09 471.342 419.09C473.148 419.09 474.604 420.098 475.22 421.778H473.428C472.98 420.966 472.28 420.546 471.342 420.546C469.9 420.546 468.85 421.638 468.85 423.136C468.85 424.606 469.942 425.726 471.384 425.726C472.252 425.726 472.854 425.376 473.428 424.55ZM477.738 427V420.714H475.862V419.272H481.196V420.714H479.32V427H477.738ZM483.801 425.558H485.425C486.195 425.558 486.657 425.166 486.657 424.536C486.657 423.906 486.195 423.514 485.425 423.514H483.801V425.558ZM482.219 427V419.272H483.801V422.072H485.593C487.133 422.072 488.267 423.122 488.267 424.536C488.267 425.95 487.133 427 485.593 427H482.219Z" fill="#3E424D"/>
<mask id="mask0_18131_6848" style="mask-type:luminance" maskUnits="userSpaceOnUse" x="423" y="372" width="52" height="52">
<path d="M464.402 382.199H433V413.601H464.402V382.199Z" fill="white"/>
</mask>
<g mask="url(#mask0_18131_6848)">
</g>
<defs>
<clipPath id="clip0_18131_6848">
<rect x="873" y="5" width="136" height="136" rx="68" fill="white"/>
</clipPath>
<clipPath id="clip1_18131_6848">
<rect x="248" width="105" height="105" rx="52.5" fill="white"/>
</clipPath>
<clipPath id="clip2_18131_6848">
<rect x="408" y="54" width="136" height="136" rx="68" fill="white"/>
</clipPath>
<clipPath id="clip3_18131_6848">
<rect x="882" y="238" width="136" height="136" rx="68" fill="white"/>
</clipPath>
<clipPath id="clip4_18131_6848">
<rect x="615" y="262.818" width="159.344" height="159.344" rx="29" transform="rotate(-0.294164 615 262.818)" fill="white"/>
</clipPath>
<clipPath id="clip5_18131_6848">
<rect x="396" y="353" width="105" height="105" rx="52.5" fill="white"/>
</clipPath>
<clipPath id="clip6_18131_6848">
<rect x="777" y="482" width="105" height="105" rx="52.5" fill="white"/>
</clipPath>
<clipPath id="clip7_18131_6848">
<rect x="227" y="480" width="105" height="105" rx="52.5" fill="white"/>
</clipPath>
<clipPath id="clip8_18131_6848">
<rect x="593" y="499" width="105" height="105" rx="52.5" fill="white"/>
</clipPath>
<clipPath id="clip9_18131_6848">
<rect x="67" y="615" width="105" height="105" rx="52.5" fill="white"/>
</clipPath>
<clipPath id="clip10_18131_6848">
<rect x="421" y="651" width="164" height="164" rx="82" fill="white"/>
</clipPath>
<clipPath id="clip11_18131_6848">
<rect x="198" y="707" width="164" height="164" rx="82" fill="white"/>
</clipPath>
<clipPath id="clip12_18131_6848">
<rect x="841" y="668" width="136" height="136" rx="68" fill="white"/>
</clipPath>
<clipPath id="clip13_18131_6848">
<rect width="44" height="40" fill="white" transform="translate(886.5 702.75)"/>
</clipPath>
<clipPath id="clip14_18131_6848">
<rect x="306" y="195" width="105" height="105" rx="52.5" fill="white"/>
</clipPath>
<clipPath id="clip15_18131_6848">
<rect x="651" y="679" width="105" height="105" rx="52.5" fill="white"/>
</clipPath>
<clipPath id="clip16_18131_6848">
<rect width="47" height="44" fill="white" transform="translate(680 693.5)"/>
</clipPath>
</defs>
</svg>
