<svg width="1920" height="961" viewBox="0 0 1920 961" fill="none" xmlns="http://www.w3.org/2000/svg">
<path d="M2041.06 228.461C2041.06 228.461 573.567 971.009 760.989 803.135C1083.94 513.87 1429.68 225.242 1725.16 -64.7596C1731.41 -70.8974 1833.18 -173.266 1850.22 -191.794C1894.77 -240.197 1810.17 -180.186 1792.48 -168.715C1426.54 68.4931 1053.46 303.469 683.705 539.631C562.29 617.177 488.134 665.266 368.541 740.855C322.658 769.855 239.407 828.776 177.621 857.748C172.512 860.144 176.196 853.105 178.151 850.255C202.268 815.084 234.509 778.025 264.612 742.454C397.04 585.958 553.704 428.352 696.237 271.367C700.398 266.783 891.09 72.7212 849.449 71.5629C838.788 71.2656 823.083 80.8112 811.41 86.7883C688.502 149.727 571.344 219.602 456.866 285.916C174.587 449.426 -99.6167 615.111 -361.152 785.221C-466.943 854.03 -432.569 832.568 -522.012 891.112C-525.661 893.499 -582.816 934.519 -551.88 904.906C-394.501 754.25 -203.822 604.657 -47.828 453.736C47.6528 361.362 139.178 268.038 177.878 180.57C178.024 180.245 187.701 157.86 184.091 155.518C182.113 154.234 176.083 155.338 171.461 156.605C134.839 166.64 99.7498 183.914 64.0685 197.861C-391.503 375.941 -891.663 669.392 -891.663 669.392" stroke="url(#paint0_linear_18131_9969)" stroke-width="148.077" stroke-linecap="square"/>
<defs>
<linearGradient id="paint0_linear_18131_9969" x1="-351.99" y1="1145.1" x2="60.3227" y2="-723.26" gradientUnits="userSpaceOnUse">
<stop stop-color="#CFCFCF"/>
<stop offset="0.680721" stop-color="white" stop-opacity="0"/>
</linearGradient>
</defs>
</svg>
