<svg width="669" height="432" viewBox="0 0 669 432" fill="none" xmlns="http://www.w3.org/2000/svg">
<path d="M172.387 1240C332.359 1122.18 494.098 1005.84 662.962 893.241C953.931 699.214 1260.38 514.678 1532.69 309.247C1538.45 304.897 1632.83 231.406 1648.97 217.572C1691.15 181.445 1618.71 214.911 1603.82 220.722C1295.87 340.844 983.558 455.756 673.237 573.253C571.338 611.834 508.928 636.198 408.749 673.326C370.315 687.57 299.066 720.355 249.731 728.436C245.651 729.104 249.869 722.774 251.894 720.389C276.881 690.956 307.894 662.577 337.084 635.011C465.496 513.732 610.797 400.576 746.256 282.655C750.211 279.212 927.606 139.03 899.324 121.698C892.083 117.259 879.019 121.715 869.578 123.797C770.164 145.715 673.027 177.49 578.585 206.375C345.71 277.596 117.852 354.325 -102.38 440.812C-191.464 475.796 -162.734 465.415 -238.14 495.399C-241.216 496.621 -290.267 519.755 -261.938 499.072C-117.815 393.846 48.8907 302.63 192.127 196.578C279.799 131.668 364.985 64.1866 412.534 -17.2159C412.712 -17.5188 424.726 -38.439 422.812 -42.4092C421.763 -44.587 417.363 -45.6956 413.888 -46.0833C386.361 -49.1534 358.145 -43.6605 330.323 -42.0593C-24.9067 -21.6163 -381.458 -17.4427 -737.909 -16.516C-945.111 -15.9774 -1154.25 -12.6257 -1361 -19.6653" stroke="url(#paint0_linear_18294_2819)" stroke-width="143" stroke-linecap="square"/>
<defs>
<linearGradient id="paint0_linear_18294_2819" x1="246.535" y1="411.529" x2="747.763" y2="-317.582" gradientUnits="userSpaceOnUse">
<stop stop-color="#FFE98B"/>
<stop offset="1" stop-color="#FED42A"/>
</linearGradient>
</defs>
</svg>
