<svg width="1360" height="185" viewBox="0 0 1360 185" fill="none" xmlns="http://www.w3.org/2000/svg">
<path d="M1687.5 136.587C1803.71 69.3007 610.6 459.275 733.268 394.968C944.637 284.159 1167.25 178.772 1365.06 61.4509C1369.25 58.9668 1437.81 16.9964 1449.54 9.09596C1480.17 -11.5358 1446.8 10.8946 1416.74 10.8946C1193.03 79.4961 966.159 145.122 740.732 212.224C666.71 234.257 621.373 248.171 548.6 269.375C520.681 277.509 468.923 296.233 433.084 300.848C430.121 301.23 433.184 297.614 434.656 296.252C452.807 279.443 475.336 263.236 496.54 247.494C589.823 178.232 695.374 113.609 793.776 46.2647C796.649 44.2983 925.514 -35.7593 904.969 -45.6576C899.709 -48.1924 890.219 -45.6475 883.36 -44.4589C811.143 -31.9413 740.58 -13.7948 671.974 2.70158C502.807 43.3753 337.283 87.195 177.3 136.587C112.587 156.566 133.457 150.638 78.6802 167.761C76.4455 168.459 40.8131 181.671 61.3923 169.859C166.088 109.765 287.188 57.6724 391.239 -2.89363C454.926 -39.9633 516.809 -78.5018 551.35 -124.99C551.479 -125.163 560.206 -137.111 558.816 -139.378C558.054 -140.622 554.857 -141.255 552.333 -141.476C532.336 -143.23 511.84 -140.093 491.629 -139.178C233.579 -127.504 -25.4309 -125.12 -284.368 -124.591C-434.886 -124.283 -586.809 -122.369 -737 -126.389" stroke="url(#paint0_linear_16823_13876)" stroke-width="87" stroke-linecap="square"/>
<defs>
<linearGradient id="paint0_linear_16823_13876" x1="902.074" y1="200.655" x2="770.762" y2="377.518" gradientUnits="userSpaceOnUse">
<stop stop-color="white"/>
<stop offset="1" stop-color="#F4F4F4"/>
</linearGradient>
</defs>
</svg>
