<svg width="1360" height="618" viewBox="0 0 1360 618" fill="none" xmlns="http://www.w3.org/2000/svg">
<path d="M114.164 1166.41C243.563 1064.09 374.391 963.06 510.983 865.27C746.343 696.767 994.227 536.507 1214.49 358.101C1219.15 354.323 1295.5 290.5 1308.55 278.486C1342.67 247.112 1284.07 276.175 1272.03 281.221C1022.93 385.541 770.308 485.336 519.294 587.377C436.87 620.882 386.387 642.041 305.354 674.284C274.265 686.654 216.633 715.127 176.726 722.145C173.426 722.725 176.838 717.228 178.476 715.156C198.688 689.595 223.774 664.949 247.385 641.011C351.255 535.685 468.787 437.416 578.358 335.007C581.557 332.017 725.049 210.276 702.172 195.224C696.315 191.369 685.748 195.239 678.111 197.047C597.696 216.082 519.124 243.676 442.731 268.762C254.362 330.614 70.0517 397.249 -108.091 472.359C-180.149 502.74 -156.91 493.725 -217.904 519.764C-220.393 520.825 -260.07 540.916 -237.154 522.954C-120.576 431.57 14.2701 352.355 130.132 260.254C201.048 203.883 269.954 145.278 308.416 74.5846C308.56 74.3215 318.277 56.1534 316.729 52.7055C315.881 50.8142 312.321 49.8514 309.511 49.5147C287.244 46.8485 264.421 51.6188 241.916 53.0093C-45.4235 70.763 -333.832 74.3876 -622.16 75.1924C-789.762 75.6602 -958.93 78.571 -1126.17 72.4574" stroke="url(#paint0_linear_16823_13892)" stroke-width="96.4979" stroke-linecap="square"/>
<defs>
<linearGradient id="paint0_linear_16823_13892" x1="96.4602" y1="48.7186" x2="131.996" y2="865.67" gradientUnits="userSpaceOnUse">
<stop stop-color="white" stop-opacity="0.2"/>
<stop offset="1" stop-color="white"/>
</linearGradient>
</defs>
</svg>
