<svg width="191" height="56" viewBox="0 0 191 56" fill="none" xmlns="http://www.w3.org/2000/svg">
<path d="M11.791 38.7533C4.05428 34.3392 0.926526 24.9354 4.42467 17L13.3513 22.0525L13.3566 22.0555L14 22.4234V40L11.7939 38.755L11.791 38.7533Z" stroke="#F4F4F4" stroke-width="3"/>
<path d="M7 11.741C12.1187 4.99005 21.9091 2.97746 29.623 7.2247L29.6274 7.2271L32 8.5224L17.6304 16.4459L16.6065 17L15.8434 16.5791L15.8392 16.5768L7 11.741Z" stroke="#F4F4F4" stroke-width="3"/>
<path d="M61.6487 22.0525L70.5753 17C74.0735 24.9355 70.9457 34.3394 63.2087 38.7535L63.2061 38.755L61 40V22.4234L61.6461 22.054L61.6487 22.0525Z" stroke="#F4F4F4" stroke-width="3"/>
<path d="M45.377 7.22462C53.0909 2.97749 62.8813 4.99008 68 11.741L59.1608 16.5768L59.1565 16.5791L58.3935 17L57.3696 16.4459L43 8.52242L45.3725 7.22712L45.377 7.22462Z" stroke="#F4F4F4" stroke-width="3"/>
<path d="M22 20.6302L37.1146 12L52 20.4866L41.1779 26.6492L41.15 26.663L41.1142 26.6834L37.0424 29L22 20.6302Z" stroke="#F4F4F4" stroke-width="3"/>
<path d="M40 52V34.0754L44.1039 31.596L44.1049 31.5954L55 25V43.0593L51.0924 45.3908L40 52Z" stroke="#F4F4F4" stroke-width="3"/>
<path d="M19 43.2159V26L34 34.5733V52L19 43.2159Z" stroke="#F4F4F4" stroke-width="3"/>
<path d="M176.746 34.6111V16.9097H179.453V22.9698C180.674 21.5805 182.04 20.9817 183.932 20.9817C187.765 20.9817 190.687 23.9759 190.687 27.9281C190.687 31.9523 187.884 34.9225 184.052 34.9225C182.04 34.9225 180.555 34.2518 179.285 32.7188V34.6111H176.746ZM183.645 32.4313C186.16 32.4313 187.932 30.563 187.932 27.9521C187.932 25.3172 186.112 23.4728 183.549 23.4728C181.106 23.4728 179.285 25.3891 179.285 27.976C179.285 30.539 181.153 32.4313 183.645 32.4313Z" fill="#F4F4F4"/>
<path d="M171.463 34.6113V33.0783C170.361 34.4197 169.283 34.9227 167.534 34.9227C164.085 34.9227 162.312 32.719 162.312 28.5033V21.3892H165.019V28.0721C165.019 31.0902 165.929 32.4316 167.989 32.4316C170.289 32.4316 171.319 31.0183 171.319 27.8086V21.3892H174.026V34.6113H171.463Z" fill="#F4F4F4"/>
<path d="M147.949 34.6111V16.9097H150.656V22.5626C151.59 21.5566 152.788 21.0775 154.297 21.0775C157.818 21.0775 159.662 23.1854 159.662 27.2574V34.6111H156.932V27.7365C156.932 24.8621 155.974 23.5687 153.866 23.5687C151.758 23.5687 150.656 24.9819 150.656 27.7365V34.6111H147.949Z" fill="#F4F4F4"/>
<path d="M142.523 34.6111V16.9097H145.23V34.6111H142.523Z" fill="#F4F4F4"/>
<path d="M125.855 28.0475C125.855 24.0234 128.73 21.0771 132.658 21.0771C134.694 21.0771 136.107 21.7718 137.257 23.3527V21.3885H139.796V34.6107H137.257V32.6944C135.964 34.2754 134.646 34.9221 132.658 34.9221C128.706 34.9221 125.855 32.0238 125.855 28.0475ZM128.586 28.0715C128.586 30.5866 130.431 32.431 132.946 32.431C135.437 32.431 137.209 30.5866 137.209 28.0236C137.209 25.4366 135.365 23.5683 132.826 23.5683C130.407 23.5683 128.586 25.5085 128.586 28.0715Z" fill="#F4F4F4"/>
<path d="M114.415 39.0906L116.786 33.6292L111.852 21.3892H114.918L118.271 30.6111L121.888 21.3892H124.954L117.337 39.0906H114.415Z" fill="#F4F4F4"/>
<path d="M96.9883 28.0236C96.9883 24.0952 100.054 21.0771 104.031 21.0771C107.887 21.0771 110.953 24.1671 110.953 28.0236C110.953 31.88 107.887 34.9221 104.031 34.9221C100.078 34.9221 96.9883 31.88 96.9883 28.0236ZM103.983 32.431C106.378 32.431 108.198 30.5147 108.198 28.0475C108.198 25.5085 106.354 23.5683 103.911 23.5683C101.587 23.5683 99.7189 25.5324 99.7189 28.0236C99.7189 30.4908 101.587 32.431 103.983 32.431Z" fill="#F4F4F4"/>
<path d="M87 34.6111V16.9097H89.7786V31.9762H95.8148V34.6111H87Z" fill="#F4F4F4"/>
</svg>
