<svg width="42" height="40" viewBox="0 0 42 40" fill="none" xmlns="http://www.w3.org/2000/svg">
<rect x="1" width="40" height="40" rx="8" fill="#FED42A"/>
<path d="M9.15036 24.8534C5.49774 22.7801 4.02108 18.3631 5.67261 14.6357L9.887 17.0089L9.88953 17.0104L10.1933 17.1832V25.439L9.15175 24.8542L9.15036 24.8534Z" stroke="#1D2122" stroke-width="1.61543"/>
<path d="M6.88867 12.1663C9.3053 8.99533 13.9275 8.05 17.5694 10.045L17.5714 10.0461L18.6916 10.6545L11.9074 14.3762L11.4241 14.6365L11.0638 14.4388L11.0618 14.4377L6.88867 12.1663Z" stroke="#1D2122" stroke-width="1.61543"/>
<path d="M32.6891 17.0089L36.9035 14.6357C38.555 18.3631 37.0783 22.7802 33.4256 24.8535L33.4243 24.8542L32.3828 25.439V17.1832L32.6878 17.0096L32.6891 17.0089Z" stroke="#1D2122" stroke-width="1.61543"/>
<path d="M25.007 10.0449C28.6488 8.05001 33.271 8.99534 35.6877 12.1663L31.5146 14.4377L31.5125 14.4388L31.1523 14.6365L30.6689 14.3762L23.8848 10.6545L25.0048 10.0461L25.007 10.0449Z" stroke="#1D2122" stroke-width="1.61543"/>
<path d="M13.9688 16.3418L21.1046 12.2881L28.1322 16.2743L23.023 19.1689L23.0098 19.1754L22.9929 19.185L21.0705 20.2731L13.9688 16.3418Z" stroke="#1D2122" stroke-width="1.61543"/>
<path d="M22.4688 31.0776V22.6583L24.4062 21.4937L24.4067 21.4934L29.5505 18.3955V26.8781L27.7056 27.9732L22.4688 31.0776Z" stroke="#1D2122" stroke-width="1.61543"/>
<path d="M12.5547 26.9507V18.8643L19.6364 22.8912V31.0766L12.5547 26.9507Z" stroke="#1D2122" stroke-width="1.61543"/>
</svg>
