<svg width="245" height="94" viewBox="0 0 245 94" fill="none" xmlns="http://www.w3.org/2000/svg">
<path d="M20.485 56.5692C12.8296 52.1395 9.73472 42.7024 13.1961 34.7389L22.0289 39.8093L22.0342 39.8123L22.6708 40.1815V57.8203L20.4879 56.5709C20.4869 56.5703 20.486 56.5698 20.485 56.5692Z" stroke="white" stroke-width="2.82438"/>
<path d="M15.999 29.844C21.0874 22.8059 30.8198 20.7077 38.488 25.1356L38.4924 25.1381L40.8509 26.4885L26.5664 34.749L25.5486 35.3267L24.79 34.8879L24.79 34.8879L24.7858 34.8855L15.999 29.844Z" stroke="white" stroke-width="2.82438"/>
<path d="M70.9618 39.8093L79.7946 34.7389C83.256 42.7025 80.1611 52.1397 72.5054 56.5694C72.5046 56.5699 72.5037 56.5704 72.5028 56.5709L70.3199 57.8203V40.1815L70.9592 39.8108L70.9618 39.8093Z" stroke="white" stroke-width="2.82438"/>
<path d="M54.5035 25.1355C62.1717 20.7077 71.9041 22.8059 76.9925 29.844L68.2057 34.8855L68.2014 34.8879L67.4429 35.3267L66.4251 34.749L52.1406 26.4885L54.499 25.1381L54.499 25.1381L54.5035 25.1355Z" stroke="white" stroke-width="2.82438"/>
<path d="M31.1143 38.7168L46.4893 29.8174L61.6311 38.5687L50.6226 44.9235L50.5942 44.9377L50.5578 44.9587L46.4158 47.3476L31.1143 38.7168Z" stroke="white" stroke-width="2.82438"/>
<path d="M49.3399 70.1528V52.3785L53.5377 49.9199L53.5388 49.9193L64.6833 43.3792V61.2871L60.6862 63.599L60.6855 63.5994L49.3399 70.1528Z" stroke="white" stroke-width="2.82438"/>
<path d="M28.3087 61.1507V43.7746L43.6521 52.4277V70.0165L28.3087 61.1507Z" stroke="white" stroke-width="2.82438"/>
<path d="M106.005 55.757H119.186V59H102.692V34.5901H106.005V55.757ZM125.509 45.7838C124.323 46.9461 123.731 48.434 123.731 50.2473C123.731 52.0606 124.323 53.5484 125.509 54.7108C126.718 55.8732 128.194 56.4544 129.938 56.4544C131.681 56.4544 133.146 55.8732 134.332 54.7108C135.54 53.5484 136.145 52.0606 136.145 50.2473C136.145 48.434 135.54 46.9461 134.332 45.7838C133.146 44.6214 131.681 44.0402 129.938 44.0402C128.194 44.0402 126.718 44.6214 125.509 45.7838ZM123.173 56.9775C121.336 55.2106 120.418 52.9673 120.418 50.2473C120.418 47.5273 121.336 45.2839 123.173 43.5171C125.033 41.7503 127.288 40.8669 129.938 40.8669C132.588 40.8669 134.831 41.7503 136.668 43.5171C138.528 45.2839 139.458 47.5273 139.458 50.2473C139.458 52.9673 138.528 55.2106 136.668 56.9775C134.831 58.7443 132.588 59.6277 129.938 59.6277C127.288 59.6277 125.033 58.7443 123.173 56.9775ZM155.172 41.5643H158.798L148.721 65.9743H145.094L147.988 58.4421L141.084 41.5643H144.71L149.941 54.7806L155.172 41.5643ZM171.725 51.2237L167.122 51.7816C165.006 52.0374 163.948 52.8278 163.948 54.1529C163.948 54.8503 164.239 55.4083 164.82 55.8267C165.401 56.2219 166.192 56.4195 167.192 56.4195C168.563 56.4195 169.656 56.0243 170.469 55.2339C171.306 54.4435 171.725 53.3973 171.725 52.0955H172.98C172.98 54.1878 172.341 55.9313 171.062 57.3262C169.784 58.6978 168.191 59.3836 166.285 59.3836C164.634 59.3836 163.274 58.9186 162.205 57.9887C161.159 57.0356 160.636 55.8151 160.636 54.3272C160.636 52.8626 161.147 51.6538 162.17 50.7006C163.193 49.7242 164.588 49.143 166.355 48.9571L171.725 48.3294V47.7714C171.725 46.8183 171.341 45.993 170.574 45.2956C169.807 44.5981 168.865 44.2494 167.749 44.2494C166.75 44.2494 165.855 44.5168 165.064 45.0515C164.297 45.5862 163.809 46.272 163.6 47.1089L160.496 46.0976C160.961 44.633 161.845 43.4474 163.146 42.5407C164.472 41.6341 165.959 41.1807 167.61 41.1807C169.633 41.1807 171.376 41.8084 172.841 43.0638C174.329 44.3192 175.072 45.807 175.072 47.5273V59H171.725V51.2237ZM178.939 59V32.8465H182.252V59H178.939ZM186.159 59V32.8465H189.471V59H186.159ZM198.119 59V48.8176C198.119 47.4227 197.736 46.3301 196.969 45.5397C196.201 44.7492 195.213 44.354 194.005 44.354C192.772 44.354 191.703 44.7957 190.796 45.6791C189.913 46.5393 189.471 47.5854 189.471 48.8176H187.902C187.902 46.702 188.576 44.9004 189.925 43.4125C191.296 41.9247 192.982 41.1807 194.981 41.1807C196.818 41.1807 198.352 41.82 199.584 43.0987C200.816 44.354 201.432 46.0162 201.432 48.0853V59H198.119ZM219.907 41.5643V59H216.594V41.5643H219.907ZM208.644 41.5643V52.3047C208.644 53.5136 208.992 54.4667 209.69 55.1642C210.411 55.8616 211.317 56.2103 212.41 56.2103C213.572 56.2103 214.56 55.8383 215.374 55.0944C216.188 54.3505 216.594 53.4671 216.594 52.4442H218.198C218.198 54.3737 217.548 56.0127 216.246 57.361C214.944 58.7094 213.34 59.3836 211.433 59.3836C209.69 59.3836 208.237 58.8024 207.075 57.64C205.912 56.4776 205.331 54.9433 205.331 53.037V41.5643H208.644ZM223.822 59V32.8465H227.135V59H223.822ZM228.914 45.8186C227.728 46.981 227.135 48.4572 227.135 50.2473C227.135 52.0374 227.728 53.5252 228.914 54.7108C230.122 55.8732 231.599 56.4544 233.342 56.4544C235.086 56.4544 236.55 55.8732 237.736 54.7108C238.945 53.5252 239.549 52.0374 239.549 50.2473C239.549 48.4572 238.945 46.981 237.736 45.8186C236.55 44.633 235.086 44.0402 233.342 44.0402C231.599 44.0402 230.122 44.633 228.914 45.8186ZM228.146 56.9775C226.542 55.1874 225.74 52.944 225.74 50.2473C225.74 47.5506 226.542 45.3188 228.146 43.552C229.774 41.7619 231.773 40.8669 234.144 40.8669C236.585 40.8669 238.643 41.7619 240.316 43.552C242.014 45.3188 242.862 47.5506 242.862 50.2473C242.862 52.944 242.014 55.1874 240.316 56.9775C238.643 58.7443 236.585 59.6277 234.144 59.6277C231.773 59.6277 229.774 58.7443 228.146 56.9775Z" fill="white"/>
</svg>
