<svg width="162" height="43" viewBox="0 0 162 43" fill="none" xmlns="http://www.w3.org/2000/svg">
<path d="M8.9624 29.6731C3.0825 26.3184 0.70541 19.1715 3.364 13.1406L10.1482 16.9805L10.1523 16.9828L10.6412 17.2624V30.6206L8.96463 29.6744L8.9624 29.6731Z" stroke="#1D2122" stroke-width="2.28"/>
<path d="M5.32031 9.14366C9.21054 4.01295 16.6512 2.48338 22.5138 5.71128L22.5172 5.7131L24.3203 6.69753L13.3994 12.7194L12.6213 13.1405L12.0413 12.8206L12.0381 12.8189L5.32031 9.14366Z" stroke="#1D2122" stroke-width="2.28"/>
<path d="M46.8544 16.9805L53.6386 13.1406C56.2972 19.1716 53.9201 26.3186 48.0399 29.6733L48.038 29.6744L46.3613 30.6206V17.2624L46.8524 16.9817L46.8544 16.9805Z" stroke="#1D2122" stroke-width="2.28"/>
<path d="M34.4881 5.71122C40.3507 2.4834 47.7914 4.01297 51.6816 9.14367L44.9639 12.8189L44.9606 12.8206L44.3807 13.1405L43.6026 12.7194L32.6816 6.69755L34.4847 5.71312L34.4881 5.71122Z" stroke="#1D2122" stroke-width="2.28"/>
<path d="M16.7207 15.8998L28.2078 9.34082L39.5207 15.7906L31.2959 20.4742L31.2747 20.4847L31.2475 20.5002L28.1529 22.2608L16.7207 15.8998Z" stroke="#1D2122" stroke-width="2.28"/>
<path d="M30.4004 39.7407V26.118L33.5193 24.2337L33.5201 24.2332L41.8004 19.2207V32.9458L38.8306 34.7177L30.4004 39.7407Z" stroke="#1D2122" stroke-width="2.28"/>
<path d="M14.4414 33.0646V19.9805L25.8414 26.4962V39.7405L14.4414 33.0646Z" stroke="#1D2122" stroke-width="2.28"/>
<path d="M148.959 27.6849V11.125H151.491V16.7944C152.634 15.4947 153.911 14.9345 155.682 14.9345C159.267 14.9345 162.001 17.7355 162.001 21.433C162.001 25.1976 159.379 27.9763 155.794 27.9763C153.911 27.9763 152.522 27.3488 151.334 25.9147V27.6849H148.959ZM155.413 25.6458C157.766 25.6458 159.424 23.8979 159.424 21.4554C159.424 18.9904 157.721 17.265 155.323 17.265C153.037 17.265 151.334 19.0576 151.334 21.4778C151.334 23.8755 153.082 25.6458 155.413 25.6458Z" fill="#1D2122"/>
<path d="M144.017 27.685V26.2508C142.986 27.5057 141.978 27.9763 140.342 27.9763C137.115 27.9763 135.457 25.9147 135.457 21.9708V15.3154H137.989V21.5674C137.989 24.3909 138.841 25.6458 140.768 25.6458C142.919 25.6458 143.883 24.3237 143.883 21.3209V15.3154H146.415V27.685H144.017Z" fill="#1D2122"/>
<path d="M122.02 27.6849V11.125H124.552V16.4134C125.426 15.4723 126.546 15.0241 127.958 15.0241C131.252 15.0241 132.977 16.9961 132.977 20.8055V27.6849H130.423V21.2537C130.423 18.5647 129.526 17.3546 127.554 17.3546C125.582 17.3546 124.552 18.6767 124.552 21.2537V27.6849H122.02Z" fill="#1D2122"/>
<path d="M116.943 27.6849V11.125H119.476V27.6849H116.943Z" fill="#1D2122"/>
<path d="M101.35 21.5453C101.35 17.7807 104.039 15.0244 107.714 15.0244C109.618 15.0244 110.94 15.6743 112.016 17.1532V15.3157H114.391V27.6853H112.016V25.8926C110.806 27.3715 109.574 27.9766 107.714 27.9766C104.016 27.9766 101.35 25.2651 101.35 21.5453ZM103.904 21.5677C103.904 23.9206 105.63 25.6461 107.983 25.6461C110.313 25.6461 111.971 23.9206 111.971 21.5229C111.971 19.1028 110.246 17.3549 107.871 17.3549C105.607 17.3549 103.904 19.17 103.904 21.5677Z" fill="#1D2122"/>
<path d="M90.6477 31.8754L92.8662 26.7662L88.25 15.3154H91.1183L94.2555 23.9427L97.6392 15.3154H100.507L93.3816 31.8754H90.6477Z" fill="#1D2122"/>
<path d="M74.3457 21.5229C74.3457 17.8479 77.214 15.0244 80.9338 15.0244C84.5416 15.0244 87.4099 17.9151 87.4099 21.5229C87.4099 25.1307 84.5416 27.9766 80.9338 27.9766C77.2364 27.9766 74.3457 25.1307 74.3457 21.5229ZM80.889 25.6461C83.1299 25.6461 84.8329 23.8534 84.8329 21.5453C84.8329 19.17 83.1075 17.3549 80.8218 17.3549C78.6482 17.3549 76.9003 19.1924 76.9003 21.5229C76.9003 23.831 78.6482 25.6461 80.889 25.6461Z" fill="#1D2122"/>
<path d="M65 27.6849V11.125H67.5994V25.22H73.2464V27.6849H65Z" fill="#1D2122"/>
</svg>
