<svg width="667" height="491" viewBox="0 0 667 491" fill="none" xmlns="http://www.w3.org/2000/svg">
<path d="M215.318 1406.06C371.123 1281.98 528.65 1159.46 693.115 1040.87C976.506 836.524 1274.98 642.178 1540.19 425.826C1545.8 421.245 1637.73 343.847 1653.44 329.278C1694.52 291.23 1623.97 326.475 1609.47 332.594C1309.54 459.103 1005.36 580.124 703.123 703.867C603.878 744.499 543.093 770.159 445.524 809.26C408.091 824.261 338.697 858.79 290.647 867.3C286.673 868.004 290.781 861.337 292.754 858.825C317.09 827.827 347.295 797.94 375.724 768.909C500.792 641.182 642.309 522.011 774.24 397.821C778.092 394.195 950.867 246.56 923.322 228.306C916.269 223.632 903.545 228.325 894.35 230.517C797.525 253.6 702.918 287.064 610.936 317.486C384.126 392.492 162.203 473.301 -52.2937 564.386C-139.057 601.229 -111.075 590.297 -184.517 621.874C-187.513 623.161 -235.287 647.525 -207.696 625.743C-67.3265 514.922 95.0376 418.858 234.543 307.167C319.931 238.807 402.9 167.738 449.21 82.0076C449.384 81.6886 461.084 59.6563 459.22 55.475C458.199 53.1814 453.913 52.0138 450.529 51.6055C423.718 48.3723 396.238 54.1572 369.14 55.8435C23.1622 77.3733 -324.103 81.7687 -671.27 82.7447C-873.076 83.312 -1076.77 86.8419 -1278.13 79.428" stroke="url(#paint0_linear_18001_1112)" stroke-width="100" stroke-linecap="square"/>
<defs>
<linearGradient id="paint0_linear_18001_1112" x1="194" y1="50.6401" x2="208.282" y2="629.363" gradientUnits="userSpaceOnUse">
<stop stop-color="white" stop-opacity="0.2"/>
<stop offset="1" stop-color="white"/>
</linearGradient>
</defs>
</svg>
