<svg width="367" height="398" viewBox="0 0 367 398" fill="none" xmlns="http://www.w3.org/2000/svg">
<path d="M19.6167 2V36.59M2.52051 18.9019H37.1105" stroke="white" stroke-opacity="0.06" stroke-width="3.14455" stroke-linecap="round" stroke-linejoin="round"/>
<path d="M19.6167 61.9189V96.509M2.52051 78.8209H37.1105" stroke="white" stroke-opacity="0.06" stroke-width="3.14455" stroke-linecap="round" stroke-linejoin="round"/>
<path d="M19.6167 121.838V156.428M2.52051 138.74H37.1105" stroke="white" stroke-opacity="0.06" stroke-width="3.14455" stroke-linecap="round" stroke-linejoin="round"/>
<path d="M19.6167 181.757V216.347M2.52051 198.659H37.1105" stroke="white" stroke-opacity="0.06" stroke-width="3.14455" stroke-linecap="round" stroke-linejoin="round"/>
<path d="M19.6167 241.676V276.266M2.52051 258.578H37.1105" stroke="white" stroke-opacity="0.06" stroke-width="3.14455" stroke-linecap="round" stroke-linejoin="round"/>
<path d="M19.6167 301.595V336.185M2.52051 318.497H37.1105" stroke="white" stroke-opacity="0.06" stroke-width="3.14455" stroke-linecap="round" stroke-linejoin="round"/>
<path d="M19.6167 361.514V396.104M2.52051 378.416H37.1105" stroke="white" stroke-opacity="0.06" stroke-width="3.14455" stroke-linecap="round" stroke-linejoin="round"/>
<path d="M85.1646 2V36.59M68.0684 18.9019H102.658" stroke="white" stroke-opacity="0.06" stroke-width="3.14455" stroke-linecap="round" stroke-linejoin="round"/>
<path d="M85.1646 61.9189V96.509M68.0684 78.8209H102.658" stroke="white" stroke-opacity="0.06" stroke-width="3.14455" stroke-linecap="round" stroke-linejoin="round"/>
<path d="M85.1646 121.838V156.428M68.0684 138.74H102.658" stroke="white" stroke-opacity="0.06" stroke-width="3.14455" stroke-linecap="round" stroke-linejoin="round"/>
<path d="M85.1646 181.757V216.347M68.0684 198.659H102.658" stroke="white" stroke-opacity="0.06" stroke-width="3.14455" stroke-linecap="round" stroke-linejoin="round"/>
<path d="M85.1646 241.676V276.266M68.0684 258.578H102.658" stroke="white" stroke-opacity="0.06" stroke-width="3.14455" stroke-linecap="round" stroke-linejoin="round"/>
<path d="M85.1646 301.595V336.185M68.0684 318.497H102.658" stroke="white" stroke-opacity="0.06" stroke-width="3.14455" stroke-linecap="round" stroke-linejoin="round"/>
<path d="M85.1646 361.514V396.104M68.0684 378.416H102.658" stroke="white" stroke-opacity="0.06" stroke-width="3.14455" stroke-linecap="round" stroke-linejoin="round"/>
<path d="M150.711 2V36.59M133.615 18.9019H168.205" stroke="white" stroke-opacity="0.06" stroke-width="3.14455" stroke-linecap="round" stroke-linejoin="round"/>
<path d="M150.711 61.9189V96.509M133.615 78.8209H168.205" stroke="white" stroke-opacity="0.06" stroke-width="3.14455" stroke-linecap="round" stroke-linejoin="round"/>
<path d="M150.711 121.838V156.428M133.615 138.74H168.205" stroke="white" stroke-opacity="0.06" stroke-width="3.14455" stroke-linecap="round" stroke-linejoin="round"/>
<path d="M150.711 181.757V216.347M133.615 198.659H168.205" stroke="white" stroke-opacity="0.06" stroke-width="3.14455" stroke-linecap="round" stroke-linejoin="round"/>
<path d="M150.711 241.676V276.266M133.615 258.578H168.205" stroke="white" stroke-opacity="0.06" stroke-width="3.14455" stroke-linecap="round" stroke-linejoin="round"/>
<path d="M150.711 301.595V336.185M133.615 318.497H168.205" stroke="white" stroke-opacity="0.06" stroke-width="3.14455" stroke-linecap="round" stroke-linejoin="round"/>
<path d="M150.711 361.514V396.104M133.615 378.416H168.205" stroke="white" stroke-opacity="0.06" stroke-width="3.14455" stroke-linecap="round" stroke-linejoin="round"/>
<path d="M216.259 2V36.59M199.163 18.9019H233.753" stroke="white" stroke-opacity="0.06" stroke-width="3.14455" stroke-linecap="round" stroke-linejoin="round"/>
<path d="M216.259 61.9189V96.509M199.163 78.8209H233.753" stroke="white" stroke-opacity="0.06" stroke-width="3.14455" stroke-linecap="round" stroke-linejoin="round"/>
<path d="M216.259 121.838V156.428M199.163 138.74H233.753" stroke="white" stroke-opacity="0.06" stroke-width="3.14455" stroke-linecap="round" stroke-linejoin="round"/>
<path d="M216.259 181.757V216.347M199.163 198.659H233.753" stroke="white" stroke-opacity="0.06" stroke-width="3.14455" stroke-linecap="round" stroke-linejoin="round"/>
<path d="M216.259 241.676V276.266M199.163 258.578H233.753" stroke="white" stroke-opacity="0.06" stroke-width="3.14455" stroke-linecap="round" stroke-linejoin="round"/>
<path d="M216.259 301.595V336.185M199.163 318.497H233.753" stroke="white" stroke-opacity="0.06" stroke-width="3.14455" stroke-linecap="round" stroke-linejoin="round"/>
<path d="M216.259 361.514V396.104M199.163 378.416H233.753" stroke="white" stroke-opacity="0.06" stroke-width="3.14455" stroke-linecap="round" stroke-linejoin="round"/>
<path d="M281.807 2V36.59M264.711 18.9019H299.301" stroke="white" stroke-opacity="0.06" stroke-width="3.14455" stroke-linecap="round" stroke-linejoin="round"/>
<path d="M281.807 61.9189V96.509M264.711 78.8209H299.301" stroke="white" stroke-opacity="0.06" stroke-width="3.14455" stroke-linecap="round" stroke-linejoin="round"/>
<path d="M281.807 121.838V156.428M264.711 138.74H299.301" stroke="white" stroke-opacity="0.06" stroke-width="3.14455" stroke-linecap="round" stroke-linejoin="round"/>
<path d="M281.807 181.757V216.347M264.711 198.659H299.301" stroke="white" stroke-opacity="0.06" stroke-width="3.14455" stroke-linecap="round" stroke-linejoin="round"/>
<path d="M281.807 241.676V276.266M264.711 258.578H299.301" stroke="white" stroke-opacity="0.06" stroke-width="3.14455" stroke-linecap="round" stroke-linejoin="round"/>
<path d="M281.807 301.595V336.185M264.711 318.497H299.301" stroke="white" stroke-opacity="0.06" stroke-width="3.14455" stroke-linecap="round" stroke-linejoin="round"/>
<path d="M281.807 361.514V396.104M264.711 378.416H299.301" stroke="white" stroke-opacity="0.06" stroke-width="3.14455" stroke-linecap="round" stroke-linejoin="round"/>
<path d="M347.355 2V36.59M330.259 18.9019H364.849" stroke="white" stroke-opacity="0.06" stroke-width="3.14455" stroke-linecap="round" stroke-linejoin="round"/>
<path d="M347.355 61.9189V96.509M330.259 78.8209H364.849" stroke="white" stroke-opacity="0.06" stroke-width="3.14455" stroke-linecap="round" stroke-linejoin="round"/>
<path d="M347.355 121.838V156.428M330.259 138.74H364.849" stroke="white" stroke-opacity="0.06" stroke-width="3.14455" stroke-linecap="round" stroke-linejoin="round"/>
<path d="M347.355 181.757V216.347M330.259 198.659H364.849" stroke="white" stroke-opacity="0.06" stroke-width="3.14455" stroke-linecap="round" stroke-linejoin="round"/>
<path d="M347.355 241.676V276.266M330.259 258.578H364.849" stroke="white" stroke-opacity="0.06" stroke-width="3.14455" stroke-linecap="round" stroke-linejoin="round"/>
<path d="M347.355 301.595V336.185M330.259 318.497H364.849" stroke="white" stroke-opacity="0.06" stroke-width="3.14455" stroke-linecap="round" stroke-linejoin="round"/>
<path d="M347.355 361.514V396.104M330.259 378.416H364.849" stroke="white" stroke-opacity="0.06" stroke-width="3.14455" stroke-linecap="round" stroke-linejoin="round"/>
</svg>
