<svg width="1292" height="202" viewBox="0 0 1292 202" fill="none" xmlns="http://www.w3.org/2000/svg">
<path d="M421 20.5044L384.128 20.5044M402.983 2.2803L402.983 39.1523" stroke="white" stroke-opacity="0.06" stroke-width="3.352" stroke-linecap="round" stroke-linejoin="round"/>
<path d="M421 90.8964L384.128 90.8964M402.983 72.6723L402.983 109.544" stroke="white" stroke-opacity="0.06" stroke-width="3.352" stroke-linecap="round" stroke-linejoin="round"/>
<path d="M421 161.288L384.128 161.288M402.983 143.064L402.983 179.936" stroke="white" stroke-opacity="0.06" stroke-width="3.352" stroke-linecap="round" stroke-linejoin="round"/>
<path d="M357.312 20.5044L320.44 20.5044M339.295 2.2803L339.295 39.1523" stroke="white" stroke-opacity="0.06" stroke-width="3.352" stroke-linecap="round" stroke-linejoin="round"/>
<path d="M357.312 90.8964L320.44 90.8964M339.295 72.6723L339.295 109.544" stroke="white" stroke-opacity="0.06" stroke-width="3.352" stroke-linecap="round" stroke-linejoin="round"/>
<path d="M357.312 161.288L320.44 161.288M339.295 143.064L339.295 179.936" stroke="white" stroke-opacity="0.06" stroke-width="3.352" stroke-linecap="round" stroke-linejoin="round"/>
<path d="M293.624 20.5044L256.752 20.5044M275.607 2.2803L275.607 39.1523" stroke="white" stroke-opacity="0.06" stroke-width="3.352" stroke-linecap="round" stroke-linejoin="round"/>
<path d="M293.624 90.8964L256.752 90.8964M275.607 72.6723L275.607 109.544" stroke="white" stroke-opacity="0.06" stroke-width="3.352" stroke-linecap="round" stroke-linejoin="round"/>
<path d="M293.624 161.288L256.752 161.288M275.607 143.064L275.607 179.936" stroke="white" stroke-opacity="0.06" stroke-width="3.352" stroke-linecap="round" stroke-linejoin="round"/>
<path d="M229.936 20.5044L193.064 20.5044M211.919 2.2803L211.919 39.1523" stroke="white" stroke-opacity="0.06" stroke-width="3.352" stroke-linecap="round" stroke-linejoin="round"/>
<path d="M229.936 90.8964L193.064 90.8964M211.919 72.6723L211.919 109.544" stroke="white" stroke-opacity="0.06" stroke-width="3.352" stroke-linecap="round" stroke-linejoin="round"/>
<path d="M229.936 161.288L193.064 161.288M211.919 143.064L211.919 179.936" stroke="white" stroke-opacity="0.06" stroke-width="3.352" stroke-linecap="round" stroke-linejoin="round"/>
<path d="M166.248 20.5044L129.376 20.5044M148.231 2.2803L148.231 39.1523" stroke="white" stroke-opacity="0.06" stroke-width="3.352" stroke-linecap="round" stroke-linejoin="round"/>
<path d="M166.248 90.8964L129.376 90.8964M148.231 72.6723L148.231 109.544" stroke="white" stroke-opacity="0.06" stroke-width="3.352" stroke-linecap="round" stroke-linejoin="round"/>
<path d="M166.248 161.288L129.376 161.288M148.231 143.064L148.231 179.936" stroke="white" stroke-opacity="0.06" stroke-width="3.352" stroke-linecap="round" stroke-linejoin="round"/>
<path d="M102.56 20.5044L65.6881 20.5044M84.5431 2.2803L84.5431 39.1523" stroke="white" stroke-opacity="0.06" stroke-width="3.352" stroke-linecap="round" stroke-linejoin="round"/>
<path d="M102.56 90.8964L65.6881 90.8964M84.5431 72.6723L84.5431 109.544" stroke="white" stroke-opacity="0.06" stroke-width="3.352" stroke-linecap="round" stroke-linejoin="round"/>
<path d="M102.56 161.288L65.6881 161.288M84.5431 143.064L84.5431 179.936" stroke="white" stroke-opacity="0.06" stroke-width="3.352" stroke-linecap="round" stroke-linejoin="round"/>
<path d="M38.8721 20.5044L2.00007 20.5044M20.8551 2.28027L20.8551 39.1523" stroke="white" stroke-opacity="0.06" stroke-width="3.352" stroke-linecap="round" stroke-linejoin="round"/>
<path d="M38.8721 90.8964L2.00007 90.8964M20.8551 72.6723L20.8551 109.544" stroke="white" stroke-opacity="0.06" stroke-width="3.352" stroke-linecap="round" stroke-linejoin="round"/>
<path d="M38.8721 161.288L2.00007 161.288M20.8551 143.064L20.8551 179.936" stroke="white" stroke-opacity="0.06" stroke-width="3.352" stroke-linecap="round" stroke-linejoin="round"/>
<path d="M871 20.5044L834.128 20.5044M852.983 2.2803L852.983 39.1523" stroke="white" stroke-opacity="0.06" stroke-width="3.352" stroke-linecap="round" stroke-linejoin="round"/>
<path d="M871 90.8964L834.128 90.8964M852.983 72.6723L852.983 109.544" stroke="white" stroke-opacity="0.06" stroke-width="3.352" stroke-linecap="round" stroke-linejoin="round"/>
<path d="M871 161.288L834.128 161.288M852.983 143.064L852.983 179.936" stroke="white" stroke-opacity="0.06" stroke-width="3.352" stroke-linecap="round" stroke-linejoin="round"/>
<path d="M807.312 20.5044L770.44 20.5044M789.295 2.2803L789.295 39.1523" stroke="white" stroke-opacity="0.06" stroke-width="3.352" stroke-linecap="round" stroke-linejoin="round"/>
<path d="M807.312 90.8964L770.44 90.8964M789.295 72.6723L789.295 109.544" stroke="white" stroke-opacity="0.06" stroke-width="3.352" stroke-linecap="round" stroke-linejoin="round"/>
<path d="M807.312 161.288L770.44 161.288M789.295 143.064L789.295 179.936" stroke="white" stroke-opacity="0.06" stroke-width="3.352" stroke-linecap="round" stroke-linejoin="round"/>
<path d="M743.624 20.5044L706.752 20.5044M725.607 2.2803L725.607 39.1523" stroke="white" stroke-opacity="0.06" stroke-width="3.352" stroke-linecap="round" stroke-linejoin="round"/>
<path d="M743.624 90.8964L706.752 90.8964M725.607 72.6723L725.607 109.544" stroke="white" stroke-opacity="0.06" stroke-width="3.352" stroke-linecap="round" stroke-linejoin="round"/>
<path d="M743.624 161.288L706.752 161.288M725.607 143.064L725.607 179.936" stroke="white" stroke-opacity="0.06" stroke-width="3.352" stroke-linecap="round" stroke-linejoin="round"/>
<path d="M679.936 20.5044L643.064 20.5044M661.919 2.2803L661.919 39.1523" stroke="white" stroke-opacity="0.06" stroke-width="3.352" stroke-linecap="round" stroke-linejoin="round"/>
<path d="M679.936 90.8964L643.064 90.8964M661.919 72.6723L661.919 109.544" stroke="white" stroke-opacity="0.06" stroke-width="3.352" stroke-linecap="round" stroke-linejoin="round"/>
<path d="M679.936 161.288L643.064 161.288M661.919 143.064L661.919 179.936" stroke="white" stroke-opacity="0.06" stroke-width="3.352" stroke-linecap="round" stroke-linejoin="round"/>
<path d="M616.248 20.5044L579.376 20.5044M598.231 2.2803L598.231 39.1523" stroke="white" stroke-opacity="0.06" stroke-width="3.352" stroke-linecap="round" stroke-linejoin="round"/>
<path d="M616.248 90.8964L579.376 90.8964M598.231 72.6723L598.231 109.544" stroke="white" stroke-opacity="0.06" stroke-width="3.352" stroke-linecap="round" stroke-linejoin="round"/>
<path d="M616.248 161.288L579.376 161.288M598.231 143.064L598.231 179.936" stroke="white" stroke-opacity="0.06" stroke-width="3.352" stroke-linecap="round" stroke-linejoin="round"/>
<path d="M552.56 20.5044L515.688 20.5044M534.543 2.2803L534.543 39.1523" stroke="white" stroke-opacity="0.06" stroke-width="3.352" stroke-linecap="round" stroke-linejoin="round"/>
<path d="M552.56 90.8964L515.688 90.8964M534.543 72.6723L534.543 109.544" stroke="white" stroke-opacity="0.06" stroke-width="3.352" stroke-linecap="round" stroke-linejoin="round"/>
<path d="M552.56 161.288L515.688 161.288M534.543 143.064L534.543 179.936" stroke="white" stroke-opacity="0.06" stroke-width="3.352" stroke-linecap="round" stroke-linejoin="round"/>
<path d="M488.872 20.5044L452 20.5044M470.855 2.28027L470.855 39.1523" stroke="white" stroke-opacity="0.06" stroke-width="3.352" stroke-linecap="round" stroke-linejoin="round"/>
<path d="M488.872 90.8964L452 90.8964M470.855 72.6723L470.855 109.544" stroke="white" stroke-opacity="0.06" stroke-width="3.352" stroke-linecap="round" stroke-linejoin="round"/>
<path d="M488.872 161.288L452 161.288M470.855 143.064L470.855 179.936" stroke="white" stroke-opacity="0.06" stroke-width="3.352" stroke-linecap="round" stroke-linejoin="round"/>
<path d="M1290 20.5044L1253.13 20.5044M1271.98 2.28027L1271.98 39.1523" stroke="white" stroke-opacity="0.06" stroke-width="3.352" stroke-linecap="round" stroke-linejoin="round"/>
<path d="M1290 90.8964L1253.13 90.8964M1271.98 72.6723L1271.98 109.544" stroke="white" stroke-opacity="0.06" stroke-width="3.352" stroke-linecap="round" stroke-linejoin="round"/>
<path d="M1290 161.288L1253.13 161.288M1271.98 143.064L1271.98 179.936" stroke="white" stroke-opacity="0.06" stroke-width="3.352" stroke-linecap="round" stroke-linejoin="round"/>
<path d="M1226.31 20.5044L1189.44 20.5044M1208.3 2.28027L1208.3 39.1523" stroke="white" stroke-opacity="0.06" stroke-width="3.352" stroke-linecap="round" stroke-linejoin="round"/>
<path d="M1226.31 90.8964L1189.44 90.8964M1208.3 72.6723L1208.3 109.544" stroke="white" stroke-opacity="0.06" stroke-width="3.352" stroke-linecap="round" stroke-linejoin="round"/>
<path d="M1226.31 161.288L1189.44 161.288M1208.3 143.064L1208.3 179.936" stroke="white" stroke-opacity="0.06" stroke-width="3.352" stroke-linecap="round" stroke-linejoin="round"/>
<path d="M1162.62 20.5044L1125.75 20.5044M1144.61 2.28027L1144.61 39.1523" stroke="white" stroke-opacity="0.06" stroke-width="3.352" stroke-linecap="round" stroke-linejoin="round"/>
<path d="M1162.62 90.8964L1125.75 90.8964M1144.61 72.6723L1144.61 109.544" stroke="white" stroke-opacity="0.06" stroke-width="3.352" stroke-linecap="round" stroke-linejoin="round"/>
<path d="M1162.62 161.288L1125.75 161.288M1144.61 143.064L1144.61 179.936" stroke="white" stroke-opacity="0.06" stroke-width="3.352" stroke-linecap="round" stroke-linejoin="round"/>
<path d="M1098.94 20.5044L1062.06 20.5044M1080.92 2.28027L1080.92 39.1523" stroke="white" stroke-opacity="0.06" stroke-width="3.352" stroke-linecap="round" stroke-linejoin="round"/>
<path d="M1098.94 90.8964L1062.06 90.8964M1080.92 72.6723L1080.92 109.544" stroke="white" stroke-opacity="0.06" stroke-width="3.352" stroke-linecap="round" stroke-linejoin="round"/>
<path d="M1098.94 161.288L1062.06 161.288M1080.92 143.064L1080.92 179.936" stroke="white" stroke-opacity="0.06" stroke-width="3.352" stroke-linecap="round" stroke-linejoin="round"/>
<path d="M1035.25 20.5044L998.376 20.5044M1017.23 2.28027L1017.23 39.1523" stroke="white" stroke-opacity="0.06" stroke-width="3.352" stroke-linecap="round" stroke-linejoin="round"/>
<path d="M1035.25 90.8964L998.376 90.8964M1017.23 72.6723L1017.23 109.544" stroke="white" stroke-opacity="0.06" stroke-width="3.352" stroke-linecap="round" stroke-linejoin="round"/>
<path d="M1035.25 161.288L998.376 161.288M1017.23 143.064L1017.23 179.936" stroke="white" stroke-opacity="0.06" stroke-width="3.352" stroke-linecap="round" stroke-linejoin="round"/>
<path d="M971.56 20.5044L934.688 20.5044M953.543 2.28027L953.543 39.1523" stroke="white" stroke-opacity="0.06" stroke-width="3.352" stroke-linecap="round" stroke-linejoin="round"/>
<path d="M971.56 90.8964L934.688 90.8964M953.543 72.6723L953.543 109.544" stroke="white" stroke-opacity="0.06" stroke-width="3.352" stroke-linecap="round" stroke-linejoin="round"/>
<path d="M971.56 161.288L934.688 161.288M953.543 143.064L953.543 179.936" stroke="white" stroke-opacity="0.06" stroke-width="3.352" stroke-linecap="round" stroke-linejoin="round"/>
<path d="M907.872 20.5043L871 20.5043M889.855 2.28024L889.855 39.1522" stroke="white" stroke-opacity="0.06" stroke-width="3.352" stroke-linecap="round" stroke-linejoin="round"/>
<path d="M907.872 90.8963L871 90.8963M889.855 72.6722L889.855 109.544" stroke="white" stroke-opacity="0.06" stroke-width="3.352" stroke-linecap="round" stroke-linejoin="round"/>
<path d="M907.872 161.288L871 161.288M889.855 143.064L889.855 179.936" stroke="white" stroke-opacity="0.06" stroke-width="3.352" stroke-linecap="round" stroke-linejoin="round"/>
</svg>
