<svg width="670" height="570" viewBox="0 0 670 570" fill="none" xmlns="http://www.w3.org/2000/svg">
<path d="M120.604 1218C257.306 1111.16 395.517 1005.68 539.817 903.573C788.46 727.637 1050.33 560.307 1283.03 374.03C1287.95 370.086 1368.61 303.447 1382.4 290.903C1418.44 258.145 1356.54 288.491 1343.81 293.759C1080.66 402.682 813.778 506.879 548.597 613.421C461.522 648.404 408.19 670.497 322.584 704.163C289.741 717.078 228.856 746.807 186.697 754.134C183.211 754.74 186.815 749 188.546 746.838C209.898 720.149 236.4 694.416 261.343 669.421C371.076 559.449 495.24 456.844 610.995 349.918C614.375 346.796 765.964 219.684 741.797 203.968C735.609 199.944 724.445 203.984 716.377 205.871C631.425 225.746 548.418 254.558 467.714 280.751C268.715 345.331 74.0022 414.906 -114.194 493.329C-190.319 525.05 -165.768 515.638 -230.205 542.825C-232.833 543.933 -274.75 564.911 -250.541 546.156C-127.383 450.741 15.0726 368.031 137.473 271.867C212.391 213.009 285.186 151.82 325.818 78.007C325.97 77.7323 336.236 58.7628 334.601 55.1628C333.705 53.188 329.944 52.1827 326.975 51.8312C303.452 49.0474 279.341 54.0281 255.566 55.48C-47.9898 74.0169 -352.675 77.8013 -657.274 78.6417C-834.336 79.1301 -1013.05 82.1693 -1189.73 75.786" stroke="url(#paint0_linear_16823_12646)" stroke-width="101.039" stroke-linecap="square"/>
<defs>
<linearGradient id="paint0_linear_16823_12646" x1="101.901" y1="51" x2="138.573" y2="904.028" gradientUnits="userSpaceOnUse">
<stop stop-color="white" stop-opacity="0.2"/>
<stop offset="1" stop-color="white"/>
</linearGradient>
</defs>
</svg>
