<svg width="672" height="530" viewBox="0 0 672 530" fill="none" xmlns="http://www.w3.org/2000/svg">
<path d="M82.8986 1310C206.41 1186.87 331.286 1065.29 461.662 947.614C686.314 744.843 922.919 551.991 1133.16 337.301C1137.61 332.756 1210.48 255.953 1222.94 241.495C1255.51 203.741 1199.58 238.715 1188.08 244.787C950.319 370.323 709.188 490.413 469.595 613.206C390.921 653.525 342.735 678.987 265.389 717.788C235.715 732.674 180.705 766.937 142.614 775.382C139.464 776.08 142.721 769.465 144.284 766.972C163.577 736.212 187.521 706.554 210.058 677.747C309.202 551.002 421.386 432.747 525.972 309.512C529.026 305.913 665.988 159.413 644.153 141.3C638.562 136.662 628.475 141.319 621.186 143.494C544.43 166.4 469.433 199.607 396.516 229.794C216.718 304.224 40.793 384.411 -129.244 474.796C-198.024 511.356 -175.842 500.508 -234.061 531.842C-236.436 533.119 -274.308 557.296 -252.436 535.682C-141.161 425.713 -12.4506 330.387 98.1395 219.555C165.829 151.72 231.6 81.1973 268.312 -3.87364C268.449 -4.19022 277.724 -26.0532 276.247 -30.2023C275.437 -32.4783 272.04 -33.6369 269.357 -34.042C248.103 -37.2504 226.319 -31.51 204.838 -29.8367C-69.4282 -8.47239 -344.715 -4.11071 -619.924 -3.14222C-779.9 -2.5793 -941.371 0.923464 -1101 -6.43346" stroke="url(#paint0_radial_18294_2709)" stroke-width="118" stroke-linecap="square"/>
<defs>
<radialGradient id="paint0_radial_18294_2709" cx="0" cy="0" r="1" gradientUnits="userSpaceOnUse" gradientTransform="translate(66 637.5) rotate(90) scale(672.5 1167)">
<stop stop-color="white"/>
<stop offset="1" stop-color="#EAEDF6" stop-opacity="0"/>
</radialGradient>
</defs>
</svg>
