<svg width="1332" height="562" viewBox="0 0 1332 562" fill="none" xmlns="http://www.w3.org/2000/svg">
<path d="M390.38 862C484.522 783.087 579.704 705.169 679.078 629.75C850.31 499.795 1030.65 376.198 1190.9 238.605C1194.29 235.692 1249.84 186.469 1259.33 177.204C1284.15 153.007 1241.53 175.422 1232.76 179.313C1051.54 259.768 867.745 336.733 685.124 415.43C625.158 441.27 588.431 457.589 529.477 482.456C506.859 491.996 464.929 513.955 435.896 519.368C433.495 519.815 435.977 515.575 437.169 513.978C451.874 494.264 470.125 475.256 487.302 456.794C562.871 375.564 648.379 299.775 728.096 220.795C730.423 218.489 834.818 124.598 818.174 112.989C813.913 110.017 806.225 113.001 800.669 114.395C742.165 129.076 685.001 150.358 629.423 169.704C492.379 217.406 358.287 268.797 228.683 326.724C176.258 350.155 193.166 343.203 148.79 363.285C146.98 364.103 118.114 379.598 134.785 365.745C219.6 295.267 317.704 234.174 401.997 163.142C453.591 119.668 503.722 74.4699 531.704 19.9486C531.809 19.7457 538.879 5.73396 537.752 3.07482C537.135 1.61616 534.546 0.873622 532.501 0.613966C516.301 -1.44229 499.697 2.23672 483.324 3.30913C274.275 17.0013 64.4488 19.7967 -145.318 20.4174C-267.254 20.7782 -390.329 23.0231 -512 18.3081" stroke="url(#paint0_radial_18294_2745)" stroke-opacity="0.13" stroke-width="130" stroke-linecap="square"/>
<defs>
<radialGradient id="paint0_radial_18294_2745" cx="0" cy="0" r="1" gradientUnits="userSpaceOnUse" gradientTransform="translate(377.5 431) rotate(90) scale(431 889.5)">
<stop stop-color="white"/>
<stop offset="1" stop-color="white" stop-opacity="0"/>
</radialGradient>
</defs>
</svg>
