<svg width="324" height="383" viewBox="0 0 324 383" fill="none" xmlns="http://www.w3.org/2000/svg">
<path d="M-18.7693 1021.52C106.665 924.067 233.485 827.843 365.892 734.705C594.041 574.218 834.331 421.582 1047.84 251.663C1052.36 248.066 1126.37 187.279 1139.02 175.836C1172.1 145.955 1115.3 173.636 1103.62 178.441C862.157 277.799 617.272 372.846 373.948 470.032C294.049 501.943 245.113 522.096 166.563 552.805C136.427 564.587 80.5599 591.705 41.8759 598.389C38.6771 598.942 41.9842 593.705 43.5722 591.733C63.1649 567.387 87.4822 543.914 110.37 521.114C211.058 420.8 324.989 327.205 431.203 229.669C434.304 226.821 573.399 110.871 551.224 96.5353C545.546 92.8641 535.302 96.55 527.899 98.2715C449.949 116.401 373.784 142.683 299.731 166.575C117.134 225.484 -61.5305 288.949 -234.215 360.486C-304.066 389.422 -281.538 380.836 -340.664 405.636C-343.076 406.647 -381.538 425.782 -359.325 408.674C-246.318 321.638 -115.603 246.191 -3.29107 158.471C65.4523 104.783 132.247 48.9661 169.531 -18.3646C169.67 -18.6151 179.09 -35.9189 177.589 -39.2028C176.767 -41.0041 173.317 -41.9211 170.592 -42.2418C149.008 -44.7811 126.884 -40.2378 105.069 -38.9134C-173.468 -22.0043 -453.041 -18.5522 -732.535 -17.7857C-895.002 -17.3402 -1058.99 -14.5678 -1221.1 -20.3906" stroke="url(#paint0_radial_16823_13392)" stroke-opacity="0.76" stroke-width="123" stroke-linecap="square"/>
<defs>
<radialGradient id="paint0_radial_16823_13392" cx="0" cy="0" r="1" gradientUnits="userSpaceOnUse" gradientTransform="translate(-35.931 489.26) rotate(90) scale(532.26 1185.17)">
<stop stop-color="white"/>
<stop offset="1" stop-color="white"/>
</radialGradient>
</defs>
</svg>
