<svg width="343" height="445" viewBox="0 0 343 445" fill="none" xmlns="http://www.w3.org/2000/svg">
<path d="M120.43 775.484C256.929 709.127 394.936 643.607 539.022 580.188C787.298 470.911 1048.78 366.98 1281.13 251.28C1286.05 248.83 1366.58 207.439 1380.35 199.648C1416.34 179.301 1354.54 198.15 1341.83 201.422C1079.06 269.076 812.578 333.794 547.789 399.969C460.843 421.698 407.59 435.42 322.111 456.331C289.316 464.353 228.521 482.818 186.425 487.369C182.944 487.746 186.542 484.18 188.27 482.837C209.592 466.26 236.054 450.277 260.96 434.752C370.53 366.447 494.512 302.717 610.095 236.303C613.47 234.364 764.835 155.413 740.703 145.651C734.525 143.151 723.377 145.661 715.321 146.833C630.494 159.178 547.611 177.074 467.026 193.342C268.321 233.454 73.8965 276.668 -114.021 325.378C-190.033 345.081 -165.519 339.235 -229.86 356.121C-232.485 356.81 -274.339 369.839 -250.167 358.19C-127.191 298.926 15.054 247.553 137.273 187.824C212.081 151.267 284.768 113.261 325.34 67.4143C325.492 67.2437 335.743 55.4614 334.11 53.2254C333.215 51.9988 329.46 51.3744 326.495 51.156C303.007 49.427 278.932 52.5206 255.192 53.4224C-47.9151 64.936 -352.15 67.2866 -656.298 67.8085C-833.098 68.1119 -1011.55 69.9996 -1187.96 66.0348" stroke="url(#paint0_linear_20116_13815)" stroke-width="101.039" stroke-linecap="square"/>
<defs>
<linearGradient id="paint0_linear_20116_13815" x1="101.754" y1="50.6398" x2="115.939" y2="581.071" gradientUnits="userSpaceOnUse">
<stop stop-color="white" stop-opacity="0.2"/>
<stop offset="1" stop-color="white" stop-opacity="0.8"/>
</linearGradient>
</defs>
</svg>
