<svg width="1535" height="539" viewBox="0 0 1535 539" fill="none" xmlns="http://www.w3.org/2000/svg">
<path d="M1502 389.974C1502 389.974 587.487 561.045 688 495.974C861.195 383.849 1054.9 341.998 1216.85 223.499C1220.27 220.99 1276.4 178.617 1285.98 170.65C1311.04 149.846 1267.84 169.32 1258.96 172.714C1075.16 242.902 888.73 310.153 703.503 378.861C642.681 401.422 605.434 415.658 545.634 437.382C522.691 445.716 480.197 464.796 450.688 469.69C448.248 470.095 450.739 466.468 451.938 465.1C466.738 448.206 485.154 431.876 502.482 416.02C578.713 346.258 665.108 281.015 745.58 213.12C747.93 211.138 853.396 130.327 836.354 120.639C831.991 118.158 824.19 120.771 818.546 122.012C759.117 135.08 701.109 153.741 644.699 170.742C505.602 212.66 369.542 257.681 238.106 308.207C184.94 328.644 202.092 322.566 157.091 340.076C155.255 340.79 126.003 354.245 142.855 342.31C228.59 281.584 327.934 228.692 413.133 167.501C465.281 130.05 515.926 91.15 543.944 44.5589C544.048 44.3855 551.125 32.413 549.956 30.1662C549.315 28.9337 546.673 28.3296 544.589 28.1301C528.081 26.5499 511.21 29.8447 494.552 30.9234C281.867 44.696 34.8923 121.313 34.8923 121.313" stroke="url(#paint0_radial_20103_1904)" stroke-width="55" stroke-linecap="square"/>
<defs>
<radialGradient id="paint0_radial_20103_1904" cx="0" cy="0" r="1" gradientUnits="userSpaceOnUse" gradientTransform="translate(787.486 -39.0775) rotate(100.447) scale(627.158 431.276)">
<stop stop-color="white" stop-opacity="0"/>
<stop offset="1" stop-color="#EAEDF6" stop-opacity="0.5"/>
</radialGradient>
</defs>
</svg>
