<svg width="375" height="611" viewBox="0 0 375 611" fill="none" xmlns="http://www.w3.org/2000/svg">
<path d="M70.6429 891C169.385 812.361 269.218 734.715 373.448 659.558C553.048 530.056 742.204 406.888 910.283 269.775C913.838 266.871 972.098 217.82 982.059 208.587C1008.09 184.474 963.382 206.811 954.19 210.689C764.109 290.864 571.335 367.561 379.79 445.984C316.894 471.734 278.371 487.996 216.537 512.777C192.813 522.284 148.835 544.167 118.383 549.56C115.865 550.006 118.468 545.781 119.718 544.189C135.142 524.544 154.284 505.602 172.301 487.204C251.563 406.257 341.25 330.732 424.861 252.026C427.303 249.728 536.799 156.164 519.342 144.596C514.873 141.634 506.809 144.608 500.981 145.997C439.618 160.626 379.661 181.834 321.367 201.114C177.626 248.65 36.9813 299.862 -98.9562 357.587C-153.943 380.937 -136.209 374.008 -182.753 394.021C-184.652 394.836 -214.929 410.277 -197.443 396.473C-108.483 326.24 -5.58467 265.359 82.8274 194.575C136.942 151.251 189.523 106.211 218.873 51.8792C218.983 51.677 226.398 37.714 225.217 35.0641C224.57 33.6105 221.853 32.8706 219.709 32.6118C202.717 30.5627 185.301 34.2289 168.128 35.2976C-51.1359 48.9422 -271.216 51.7278 -491.234 52.3463C-619.128 52.7059 -748.218 54.9429 -875.834 50.2444" stroke="url(#paint0_linear_20052_5710)" stroke-width="63.3752" stroke-linecap="square"/>
<defs>
<linearGradient id="paint0_linear_20052_5710" x1="57.1332" y1="32" x2="66.184" y2="398.767" gradientUnits="userSpaceOnUse">
<stop stop-color="white" stop-opacity="0.6"/>
<stop offset="1" stop-color="white"/>
</linearGradient>
</defs>
</svg>
