<svg width="343" height="200" viewBox="0 0 343 200" fill="none" xmlns="http://www.w3.org/2000/svg">
<path d="M120.43 401.242C256.929 368.064 394.936 335.304 539.022 303.594C787.298 248.955 1048.78 196.99 1281.13 139.14C1286.05 137.915 1366.58 117.22 1380.35 113.324C1416.34 103.151 1354.54 112.575 1341.83 114.211C1079.06 148.038 812.578 180.397 547.789 213.485C460.843 224.349 407.59 231.21 322.111 241.665C289.316 245.676 228.521 254.909 186.425 257.185C182.944 257.373 186.542 255.59 188.27 254.918C209.592 246.63 236.054 238.638 260.96 230.876C370.53 196.723 494.512 164.858 610.095 131.652C613.47 130.682 764.835 91.2062 740.703 86.3255C734.525 85.0756 723.377 86.3305 715.321 86.9166C630.494 93.0888 547.611 102.037 467.026 110.171C268.321 130.227 73.8965 151.834 -114.021 176.189C-190.033 186.04 -165.519 183.117 -229.86 191.561C-232.485 191.905 -274.339 198.419 -250.167 192.595C-127.191 162.963 15.054 137.277 137.273 107.412C212.081 89.1333 284.768 70.1302 325.34 47.2071C325.492 47.1218 335.743 41.2306 334.11 40.1126C333.215 39.4993 329.46 39.1871 326.495 39.078C303.007 38.2134 278.932 39.7602 255.192 40.2111C-47.9151 45.9679 -352.15 47.1432 -656.298 47.4042C-833.098 47.5559 -1011.55 48.4997 -1187.96 46.5173" stroke="url(#paint0_linear_20103_4993)" stroke-width="101.039" stroke-linecap="square"/>
<defs>
<linearGradient id="paint0_linear_20103_4993" x1="101.754" y1="38.8198" x2="105.302" y2="304.178" gradientUnits="userSpaceOnUse">
<stop stop-color="white" stop-opacity="0.2"/>
<stop offset="1" stop-color="white" stop-opacity="0.8"/>
</linearGradient>
</defs>
</svg>
