<svg width="343" height="400" viewBox="0 0 343 400" fill="none" xmlns="http://www.w3.org/2000/svg">
<path d="M318.607 1139.5C490.678 1033.12 664.651 928.077 846.287 826.403C1159.26 651.209 1488.89 484.585 1781.79 299.094C1787.99 295.167 1889.52 228.809 1906.87 216.318C1952.24 183.698 1874.33 213.915 1858.31 219.162C1527.07 327.625 1191.13 431.382 857.339 537.475C747.733 572.31 680.602 594.31 572.846 627.834C531.505 640.695 454.867 670.298 401.8 677.595C397.412 678.198 401.949 672.482 404.127 670.329C431.004 643.752 464.363 618.128 495.76 593.238C633.885 483.731 790.176 381.559 935.881 275.084C940.135 271.975 1130.95 145.399 1100.53 129.749C1092.74 125.742 1078.69 129.765 1068.53 131.645C961.597 151.436 857.113 180.126 755.527 206.208C505.039 270.516 259.947 339.797 23.0568 417.889C-72.7646 449.477 -41.8615 440.104 -122.971 467.177C-126.28 468.28 -179.041 489.169 -148.569 470.494C6.45463 375.481 185.769 293.12 339.84 197.362C434.142 138.752 525.772 77.8208 576.918 4.31973C577.109 4.04621 590.031 -14.8433 587.973 -18.4281C586.845 -20.3946 582.111 -21.3956 578.374 -21.7457C548.764 -24.5177 518.415 -19.558 488.488 -18.1123C106.39 0.346426 -277.13 4.11491 -660.541 4.95168C-883.415 5.43804 -1108.37 8.46442 -1330.76 2.10806" stroke="url(#paint0_linear_20166_4435)" stroke-opacity="0.05" stroke-width="143" stroke-linecap="square"/>
<defs>
<linearGradient id="paint0_linear_20166_4435" x1="398.362" y1="391.448" x2="818.053" y2="-335.822" gradientUnits="userSpaceOnUse">
<stop stop-color="white"/>
<stop offset="1" stop-color="white"/>
</linearGradient>
</defs>
</svg>
