<svg width="670" height="438" viewBox="0 0 670 438" fill="none" xmlns="http://www.w3.org/2000/svg">
<path d="M-69.652 978.714C53.4887 893.903 177.99 810.161 307.975 729.105C531.953 589.437 767.849 456.602 977.46 308.726C981.893 305.595 1054.55 252.693 1066.97 242.735C1099.44 216.73 1043.68 240.82 1032.22 245.002C795.167 331.471 554.759 414.188 315.885 498.767C237.447 526.538 189.405 544.077 112.292 570.802C82.7062 581.056 27.861 604.656 -10.1157 610.473C-13.2561 610.954 -10.0094 606.397 -8.45048 604.68C10.7841 583.493 34.6567 563.065 57.1256 543.222C155.973 455.921 267.821 374.468 372.093 289.584C375.137 287.106 511.689 186.198 489.919 173.721C484.345 170.526 474.289 173.734 467.021 175.232C390.496 191.01 315.723 213.883 243.025 234.675C63.7659 285.942 -111.631 341.175 -281.158 403.431C-349.732 428.614 -327.616 421.141 -385.661 442.724C-388.029 443.604 -425.787 460.257 -403.98 445.369C-293.04 369.623 -164.715 303.963 -54.4568 227.623C13.0296 180.899 78.6034 132.323 115.205 73.7267C115.342 73.5087 124.589 58.4496 123.116 55.5917C122.309 54.0241 118.922 53.226 116.247 52.947C95.0573 50.737 73.3382 54.691 51.9215 55.8436C-221.522 70.5591 -495.983 73.5634 -770.366 74.2305C-929.863 74.6183 -1090.85 77.0309 -1250 71.9635" stroke="url(#paint0_linear_16823_13517)" stroke-width="102.936" stroke-linecap="square"/>
<defs>
<linearGradient id="paint0_linear_16823_13517" x1="-207" y1="648" x2="718.972" y2="-231.987" gradientUnits="userSpaceOnUse">
<stop stop-color="#F7F7F8"/>
<stop offset="1" stop-color="white"/>
</linearGradient>
</defs>
</svg>
