<svg width="670" height="541" viewBox="0 0 670 541" fill="none" xmlns="http://www.w3.org/2000/svg">
<path d="M316.749 1262C487.817 1144.18 660.776 1027.84 841.352 915.241C1152.5 721.214 1480.21 536.678 1771.41 331.247C1777.56 326.897 1878.5 253.406 1895.76 239.572C1940.86 203.445 1863.4 236.911 1847.47 242.722C1518.16 362.844 1184.19 477.756 852.34 595.253C743.373 633.834 676.634 658.198 569.507 695.326C528.406 709.57 452.215 742.355 399.458 750.436C395.095 751.104 399.605 744.774 401.771 742.389C428.492 712.956 461.656 684.577 492.87 657.011C630.189 535.732 785.569 422.576 930.424 304.655C934.654 301.212 1124.35 161.03 1094.11 143.698C1086.37 139.259 1072.4 143.715 1062.3 145.797C955.99 167.715 852.116 199.49 751.122 228.375C502.094 299.596 258.431 376.325 22.9227 462.812C-72.34 497.796 -41.6171 487.415 -122.253 517.399C-125.543 518.621 -177.997 541.755 -147.703 521.072C6.41731 415.846 184.687 324.63 337.858 218.578C431.611 153.668 522.707 86.1866 573.554 4.7841C573.744 4.48118 586.591 -16.439 584.545 -20.4092C583.423 -22.587 578.717 -23.6956 575.002 -24.0833C545.565 -27.1534 515.392 -21.6605 485.64 -20.0593C105.77 0.383666 -275.513 4.55726 -656.689 5.48398C-878.264 6.02263 -1101.91 9.37435 -1323 2.33467" stroke="url(#paint0_linear_16823_13557)" stroke-opacity="0.05" stroke-width="143" stroke-linecap="square"/>
<defs>
<linearGradient id="paint0_linear_16823_13557" x1="396.04" y1="433.529" x2="884.43" y2="-326.185" gradientUnits="userSpaceOnUse">
<stop stop-color="white"/>
<stop offset="1" stop-color="white"/>
</linearGradient>
</defs>
</svg>
