<svg width="1360" height="380" viewBox="0 0 1360 380" fill="none" xmlns="http://www.w3.org/2000/svg">
<path d="M904.942 1124.29C761.795 1008.6 617.067 894.37 465.964 783.803C205.597 593.285 -68.6234 412.087 -312.288 210.371C-317.442 206.1 -401.902 133.938 -416.342 120.355C-454.083 84.8817 -389.266 117.742 -375.941 123.447C-100.379 241.397 179.086 354.23 456.769 469.603C547.951 507.485 603.797 531.409 693.439 567.865C727.831 581.851 791.587 614.044 835.733 621.979C839.384 622.635 835.61 616.419 833.797 614.077C811.438 585.176 783.687 557.31 757.568 530.244C642.661 411.158 512.642 300.049 391.43 184.261C387.891 180.88 229.154 43.2331 254.461 26.2145C260.94 21.8563 272.63 26.2319 281.079 28.2756C370.037 49.7975 456.957 80.9977 541.466 109.361C749.848 179.293 953.742 254.634 1150.81 339.557C1230.52 373.908 1204.82 363.715 1272.29 393.156C1275.04 394.356 1318.94 417.072 1293.59 396.763C1164.62 293.44 1015.45 203.875 887.278 99.7407C808.828 36.005 732.6 -30.2562 690.052 -110.186C689.893 -110.484 679.143 -131.025 680.856 -134.924C681.794 -137.062 685.732 -138.151 688.841 -138.532C713.473 -141.546 738.721 -136.153 763.617 -134.58C1081.49 -114.507 1400.54 -110.409 1719.5 -109.499C1904.91 -108.97 2092.05 -105.679 2277.05 -112.591" stroke="url(#paint0_linear_18007_1140)" stroke-width="100" stroke-linecap="square"/>
<defs>
<linearGradient id="paint0_linear_18007_1140" x1="774.428" y1="781.165" x2="1150.4" y2="33.1549" gradientUnits="userSpaceOnUse">
<stop offset="0.0222079" stop-color="white"/>
<stop offset="1" stop-color="white" stop-opacity="0"/>
</linearGradient>
</defs>
</svg>
