<svg width="65" height="46" viewBox="0 0 65 46" fill="none" xmlns="http://www.w3.org/2000/svg">
<path d="M8.69093 31.9966C1.72553 27.8104 -1.04893 18.7833 2.31724 11.2632L10.3627 16.0608L10.366 16.0628L11.1096 16.5107V33.4348L8.69285 31.9978C8.69221 31.9974 8.69157 31.997 8.69093 31.9966Z" stroke="white" stroke-width="1.78072"/>
<path d="M4.26315 7.71953C8.93493 0.950044 18.2026 -1.1275 25.4769 3.03113L25.4797 3.03273L28.2013 4.57558L14.6383 12.3409L14.6352 12.3426L13.5087 12.9757L12.6204 12.4669L12.6177 12.4654L4.26315 7.71953Z" stroke="white" stroke-width="1.78072"/>
<path d="M54.6373 16.0608L62.6828 11.2632C66.0489 18.7833 63.2745 27.8104 56.3091 31.9966C56.3084 31.997 56.3078 31.9974 56.3072 31.9978L53.8904 33.4348V16.5107L54.6356 16.0618L54.6373 16.0608Z" stroke="white" stroke-width="1.78072"/>
<path d="M39.5231 3.03113C46.7974 -1.1275 56.0651 0.950044 60.7368 7.71953L52.3823 12.4654L52.3796 12.4669L51.4913 12.9757L50.3679 12.3444L50.3648 12.3426L36.7987 4.57558L39.5203 3.03273L39.5203 3.03274L39.5231 3.03113Z" stroke="white" stroke-width="1.78072"/>
<path d="M32.1175 7.03732L46.268 15.49L35.932 21.6567L35.9308 21.6573L35.9068 21.6697L35.8836 21.6836L32.0545 23.9661L17.7546 15.6297L32.1175 7.03732Z" stroke="white" stroke-width="1.78072"/>
<path d="M34.8904 44.4303V27.254L38.775 24.8893L38.7757 24.8889L49.1096 18.586V35.8909L45.3999 38.121L45.3994 38.1212L34.8904 44.4303Z" stroke="white" stroke-width="1.78072"/>
<mask id="path-7-inside-1_867_7601" fill="white">
<path fill-rule="evenodd" clip-rule="evenodd" d="M31 27.2195V46L30.918 45.9485L15 36.5485V18L30.918 27.1744L31 27.2195Z"/>
</mask>
<path d="M31 27.2195H32.7807V26.1669L31.8585 25.6594L31 27.2195ZM31 46L30.052 47.5074L32.7807 49.2235V46H31ZM30.918 45.9485L31.8661 44.4411L31.845 44.4278L31.8235 44.4151L30.918 45.9485ZM15 36.5485H13.2193V37.565L14.0945 38.0819L15 36.5485ZM15 18L15.8892 16.4572L13.2193 14.9184V18H15ZM30.918 27.1744L30.0288 28.7172L30.0441 28.726L30.0595 28.7345L30.918 27.1744ZM29.2193 27.2195V46H32.7807V27.2195H29.2193ZM31.948 44.4926L31.8661 44.4411L29.97 47.4558L30.052 47.5074L31.948 44.4926ZM31.8235 44.4151L15.9055 35.0152L14.0945 38.0819L30.0126 47.4818L31.8235 44.4151ZM16.7807 36.5485V18H13.2193V36.5485H16.7807ZM14.1108 19.5428L30.0288 28.7172L31.8072 25.6316L15.8892 16.4572L14.1108 19.5428ZM30.0595 28.7345L30.1415 28.7796L31.8585 25.6594L31.7765 25.6143L30.0595 28.7345Z" fill="white" mask="url(#path-7-inside-1_867_7601)"/>
</svg>
