<svg width="267" height="94" viewBox="0 0 267 94" fill="none" xmlns="http://www.w3.org/2000/svg">
<path d="M20.485 56.5692C12.8296 52.1395 9.73472 42.7024 13.1961 34.7389L22.0289 39.8093L22.0342 39.8123L22.6708 40.1815V57.8203L20.4879 56.5709C20.4869 56.5703 20.486 56.5698 20.485 56.5692Z" stroke="white" stroke-width="2.82438"/>
<path d="M15.999 29.844C21.0874 22.8059 30.8198 20.7077 38.488 25.1356L38.4924 25.1381L40.8509 26.4885L26.5664 34.749L25.5486 35.3267L24.79 34.8879L24.79 34.8879L24.7858 34.8855L15.999 29.844Z" stroke="white" stroke-width="2.82438"/>
<path d="M70.9618 39.8093L79.7946 34.7389C83.256 42.7025 80.1611 52.1397 72.5054 56.5694C72.5046 56.5699 72.5037 56.5704 72.5028 56.5709L70.3199 57.8203V40.1815L70.9592 39.8108L70.9618 39.8093Z" stroke="white" stroke-width="2.82438"/>
<path d="M54.5035 25.1355C62.1717 20.7077 71.9041 22.8059 76.9925 29.844L68.2057 34.8855L68.2014 34.8879L67.4429 35.3267L66.4251 34.749L52.1406 26.4885L54.499 25.1381L54.499 25.1381L54.5035 25.1355Z" stroke="white" stroke-width="2.82438"/>
<path d="M31.1143 38.7168L46.4893 29.8174L61.6311 38.5687L50.6226 44.9235L50.5942 44.9377L50.5578 44.9587L46.4158 47.3476L31.1143 38.7168Z" stroke="white" stroke-width="2.82438"/>
<path d="M49.3399 70.1528V52.3785L53.5377 49.9199L53.5388 49.9193L64.6833 43.3792V61.2871L60.6862 63.599L60.6855 63.5994L49.3399 70.1528Z" stroke="white" stroke-width="2.82438"/>
<path d="M28.3087 61.1507V43.7746L43.6521 52.4277V70.0165L28.3087 61.1507Z" stroke="white" stroke-width="2.82438"/>
<path d="M108.027 53.1689H122.636V57H103.702V32.5832H108.027V53.1689ZM133.84 57.3405C131.013 57.3405 128.703 56.5459 126.91 54.9568C125.116 53.3676 124.22 51.1995 124.22 48.4524C124.22 45.7168 125.116 43.5486 126.91 41.9481C128.703 40.3589 131.013 39.5643 133.84 39.5643C136.678 39.5643 138.993 40.3589 140.787 41.9481C142.569 43.5486 143.46 45.7168 143.46 48.4524C143.46 51.2108 142.569 53.3789 140.787 54.9568C138.993 56.5459 136.678 57.3405 133.84 57.3405ZM137.892 52.3176C138.914 51.33 139.425 50.0416 139.425 48.4524C139.425 46.8746 138.914 45.5919 137.892 44.6043C136.848 43.6168 135.497 43.123 133.84 43.123C132.16 43.123 130.809 43.6168 129.787 44.6043C128.766 45.5919 128.255 46.8746 128.255 48.4524C128.255 50.0416 128.766 51.33 129.787 52.3176C130.809 53.3051 132.16 53.7989 133.84 53.7989C135.497 53.7989 136.848 53.3051 137.892 52.3176ZM145.214 39.9049H149.402L155.192 52.9135H155.362L160.521 39.9049H164.744L157.252 58.0386C156.423 60.0365 155.464 61.5803 154.374 62.67C153.273 63.7711 151.917 64.3216 150.305 64.3216C149.454 64.3216 148.744 64.2308 148.177 64.0492L147.836 63.9811V60.4224C148.426 60.6495 149.136 60.763 149.964 60.763C151.383 60.763 152.45 59.8549 153.165 58.0386L153.302 57.6981L145.214 39.9049ZM166.14 52.1814C166.14 50.4105 166.884 49.0824 168.371 48.197C169.858 47.323 171.736 46.8859 174.007 46.8859C175.153 46.8859 176.231 47.0222 177.242 47.2946C178.252 47.5897 178.956 47.8735 179.353 48.1459L179.949 48.5205V46.0516C179.949 45.1095 179.591 44.3262 178.876 43.7019C178.15 43.0776 177.003 42.7654 175.437 42.7654C174.052 42.7654 172.968 42.9868 172.185 43.4295C171.401 43.8608 171.01 44.4908 171.01 45.3195H166.974C166.986 43.4011 167.775 41.9595 169.341 40.9946C170.896 40.0411 172.928 39.5643 175.437 39.5643C178.002 39.5643 180.045 40.1149 181.567 41.2159C183.088 42.3284 183.848 43.9403 183.848 46.0516V51.7386C183.848 52.5219 183.945 53.0724 184.138 53.3903C184.342 53.7081 184.688 53.867 185.176 53.867C185.596 53.867 185.863 53.8159 185.977 53.7138L186.045 53.6797V57.0341C185.659 57.2384 185.046 57.3405 184.206 57.3405C183.275 57.3405 182.492 57.1532 181.856 56.7786C181.22 56.4268 180.806 56.0578 180.613 55.6719L180.358 55.11H180.153C180.051 55.2689 179.75 55.5243 179.251 55.8762C178.831 56.16 178.417 56.387 178.008 56.5573C176.85 57.0795 175.369 57.3405 173.564 57.3405C171.396 57.3405 169.619 56.9092 168.234 56.0465C166.838 55.1951 166.14 53.9068 166.14 52.1814ZM175.062 54.1395C176.061 54.1395 176.969 54.0203 177.787 53.7819C178.581 53.5662 179.149 53.3392 179.489 53.1008L179.949 52.7432V51.1086C179.007 50.4049 177.378 50.0416 175.062 50.0189C171.804 50.0189 170.175 50.6943 170.175 52.0451C170.175 53.4414 171.804 54.1395 175.062 54.1395ZM189.552 32.5832H193.451V57H189.552V32.5832ZM216.625 57H212.726V48.3503C212.726 46.5908 212.261 45.2797 211.33 44.417C210.399 43.5543 209.167 43.123 207.635 43.123C206 43.123 204.752 43.6054 203.889 44.5703C203.015 45.5465 202.578 46.8065 202.578 48.3503V57H198.679V32.5832H202.578V42.6632H202.816C202.941 42.3908 203.219 42.0332 203.651 41.5905C203.934 41.2841 204.315 40.9662 204.791 40.637C205.268 40.3419 205.892 40.0922 206.664 39.8878C207.436 39.6722 208.248 39.5643 209.099 39.5643C211.301 39.5643 213.106 40.2114 214.514 41.5054C215.921 42.8108 216.625 44.7576 216.625 47.3457V57ZM221.699 39.9049H225.598V48.5546C225.598 50.3141 226.064 51.6251 226.995 52.4878C227.937 53.3619 229.168 53.7989 230.69 53.7989C232.324 53.7989 233.573 53.3165 234.435 52.3516C235.31 51.3754 235.747 50.1097 235.747 48.5546V39.9049H239.646V57H235.747V54.2416H235.508C235.372 54.5368 235.1 54.8943 234.691 55.3143C234.396 55.6322 234.01 55.95 233.533 56.2678C233.068 56.5743 232.449 56.8297 231.677 57.0341C230.905 57.2384 230.088 57.3405 229.225 57.3405C227.034 57.3405 225.235 56.6878 223.828 55.3824C222.409 54.0884 221.699 52.153 221.699 49.5762V39.9049ZM254.885 57.3405C253.614 57.3405 252.507 57.1249 251.565 56.6935C250.566 56.2622 249.885 55.8308 249.521 55.3995L248.96 54.7695H248.789V57H244.89V32.5832H248.789V42.1524H248.96C249.096 41.9481 249.391 41.6416 249.845 41.233C250.231 40.9038 250.611 40.6427 250.986 40.4497C252.098 39.8595 253.398 39.5643 254.885 39.5643C257.439 39.5643 259.596 40.3646 261.355 41.9651C263.115 43.5884 263.994 45.7508 263.994 48.4524C263.994 51.1768 263.115 53.3392 261.355 54.9397C259.596 56.5403 257.439 57.3405 254.885 57.3405ZM254.374 53.7989C256.043 53.7989 257.388 53.3051 258.41 52.3176C259.431 51.33 259.942 50.0416 259.942 48.4524C259.942 46.8746 259.431 45.5919 258.41 44.6043C257.388 43.6168 256.043 43.123 254.374 43.123C252.694 43.123 251.343 43.6168 250.322 44.6043C249.3 45.5919 248.789 46.8746 248.789 48.4524C248.789 50.0416 249.3 51.33 250.322 52.3176C251.343 53.3051 252.694 53.7989 254.374 53.7989Z" fill="white"/>
</svg>
